<svg width="221" height="229" viewBox="0 0 221 229" fill="none" xmlns="http://www.w3.org/2000/svg">
<path fill-rule="evenodd" clip-rule="evenodd" d="M48.5174 167.794L10.9095 157.778C20.9905 108.515 54.7965 46.4277 98.3664 6.2986L125.66 33.3573C108.388 51.8081 92.9371 72.508 79.757 95.3366C66.2657 118.704 55.8956 143.018 48.5174 167.794ZM131.345 38.9933L201.84 108.882C179.141 130.199 162.458 158.095 151.928 195.333L56.2531 169.854C63.4517 145.742 73.5541 122.08 86.6852 99.3366C99.5133 77.1177 114.545 56.9644 131.345 38.9933Z" fill="#6D50A2"/>
<path d="M130.836 111.663L113.699 111.371L115.853 137.615L98.7161 137.323L100.826 163.118L92.2428 163.809L89.3761 128.548L106.499 128.863L104.346 102.62L121.483 102.912L119.329 76.6681L145.503 77.1052L145.361 85.7194L128.682 85.4196L130.836 111.663Z" fill="white"/>
<path d="M156.499 126.48L139.385 126.201L141.516 152.431L124.402 152.152L126.512 177.948L117.929 178.639L115.039 143.365L132.163 143.68L130.009 117.436L147.146 117.728L144.992 91.4848L171.189 91.9349L171.025 100.536L154.368 100.249L156.499 126.48Z" fill="white"/>
<path d="M101.406 39.5236C100.562 40.5854 99.6247 41.5109 98.5952 42.3C97.5625 43.0615 96.6274 43.574 95.7898 43.8374L94.159 40.5808C94.9658 40.2929 95.7906 39.856 96.6334 39.2701C97.4731 38.6566 98.1927 37.9728 98.7925 37.2187C99.4534 36.3877 99.8184 35.7233 99.8876 35.2256C99.9691 34.7126 99.8328 34.3153 99.4788 34.0338C99.1864 33.8012 98.8608 33.7684 98.502 33.9353C98.1401 34.0745 97.7431 34.3366 97.3113 34.7217C96.8794 35.1069 96.4108 35.5381 95.9055 36.0156C95.4124 36.4776 94.8901 36.929 94.3386 37.3697C93.7717 37.7982 93.18 38.1316 92.5634 38.3698C91.9469 38.608 91.3053 38.6882 90.6387 38.6102C89.9843 38.5169 89.3032 38.1888 88.5953 37.6258C87.8104 37.0016 87.2953 36.2277 87.0501 35.304C86.8171 34.365 86.874 33.33 87.2208 32.1989C87.5522 31.0556 88.1953 29.8837 89.1499 28.6833C89.8231 27.8369 90.6008 27.0485 91.4831 26.3182C92.3654 25.5879 93.2161 25.071 94.0352 24.7677L95.6429 28.006C94.8116 28.3246 94.0896 28.7428 93.4769 29.2605C92.8611 29.7505 92.3267 30.2803 91.8739 30.8497C91.2375 31.6499 90.8801 32.3204 90.8018 32.8611C90.7235 33.4018 90.8537 33.8068 91.1922 34.076C91.5 34.3208 91.8349 34.3736 92.1969 34.2344C92.5711 34.0798 92.9818 33.816 93.4291 33.4432C93.8763 33.0703 94.3465 32.6528 94.8396 32.1908C95.3295 31.7011 95.8579 31.242 96.4248 30.8135C96.9917 30.3851 97.5773 30.0594 98.1816 29.8366C98.7828 29.5861 99.4167 29.4998 100.083 29.5777C100.734 29.6434 101.414 29.9578 102.122 30.5208C102.891 31.1327 103.393 31.9082 103.626 32.8472C103.843 33.774 103.773 34.8106 103.414 35.9571C103.067 37.0882 102.398 38.277 101.406 39.5236Z" fill="white"/>
<path d="M90.3106 54.2547C89.5436 55.3258 88.6489 56.1362 87.6265 56.6859C86.6156 57.2196 85.5204 57.4149 84.3411 57.2718C83.1459 57.1173 81.8848 56.5649 80.5578 55.6147L73.2677 50.3946L75.9465 46.6536L82.685 51.4788C83.7562 52.2458 84.7078 52.5887 85.5399 52.5073C86.3675 52.3986 87.0789 51.9286 87.6742 51.0972C88.0863 50.5217 88.3328 49.9242 88.4135 49.3049C88.4782 48.6741 88.3464 48.0476 88.018 47.4255C87.6735 46.7919 87.1097 46.1947 86.3263 45.6338L79.9474 41.0661L82.6262 37.3251L95.5278 46.5634L92.9864 50.1126L89.4373 47.5712L90.9321 47.6621C91.5183 48.7348 91.7398 49.8608 91.5967 51.0401C91.449 52.192 91.0204 53.2635 90.3106 54.2547Z" fill="white"/>
<path d="M81.8926 66.2222L68.6239 57.5194L71.1474 53.6719L84.4161 62.3747L81.8926 66.2222ZM68.0359 54.3824C67.5722 55.0894 66.9892 55.5301 66.287 55.7044C65.5848 55.8788 64.9295 55.7664 64.3212 55.3674C63.7128 54.9684 63.3487 54.4121 63.2288 53.6986C63.1089 52.9851 63.2809 52.2748 63.7446 51.5678C64.2083 50.8608 64.783 50.4147 65.4688 50.2296C66.1382 50.0337 66.777 50.1353 67.3854 50.5343C68.0266 50.9548 68.4154 51.5273 68.5517 52.2516C68.6824 52.9487 68.5104 53.659 68.0359 54.3824Z" fill="white"/>
<path d="M75.623 76.2443L62.1064 67.9316L64.4086 64.1882L68.2274 66.5368L66.7975 66.3845C66.09 65.3954 65.7664 64.3076 65.8266 63.1212C65.8701 61.9245 66.2832 60.6897 67.0661 59.4167L70.6839 61.6417C70.5641 61.7989 70.463 61.9444 70.3806 62.0784C70.2815 62.2021 70.1856 62.3393 70.0928 62.4901C69.4336 63.562 69.2078 64.6235 69.4155 65.6746C69.6168 66.6987 70.3622 67.6073 71.6519 68.4004L78.0333 72.325L75.623 76.2443Z" fill="white"/>
<path d="M71.762 82.8623L69.0566 81.355L68.3205 81.2826L63.4765 78.5839C62.6176 78.1055 61.7993 77.9985 61.0217 78.263C60.2537 78.5104 59.5682 79.1752 58.9653 80.2573C58.5538 80.996 58.2674 81.793 58.1059 82.6484C57.9369 83.4771 57.9111 84.2505 58.0287 84.9688L54.4164 84.8471C54.3049 83.7946 54.3999 82.6545 54.7012 81.4269C55.0025 80.1992 55.4593 79.0357 56.0718 77.9363C57.2488 75.8235 58.6609 74.4606 60.3079 73.8476C61.9549 73.2346 63.8348 73.5166 65.9476 74.6936L73.8578 79.1004L71.762 82.8623ZM69.614 87.2027C69.0112 88.2849 68.314 89.112 67.5227 89.684C66.7142 90.2464 65.8773 90.5568 65.012 90.6149C64.1468 90.6731 63.3191 90.4821 62.529 90.0419C61.7045 89.5826 61.0931 88.9831 60.6948 88.2435C60.3061 87.4868 60.184 86.5747 60.3285 85.5072C60.4558 84.4302 60.9118 83.1874 61.6965 81.7789L63.7492 78.0944L66.0939 79.4006L64.2852 82.6471C63.7589 83.5919 63.5499 84.3308 63.6581 84.8637C63.7759 85.3795 64.0667 85.7666 64.5305 86.025C65.0458 86.3121 65.5681 86.3442 66.0974 86.1214C66.6191 85.8718 67.0761 85.3949 67.4684 84.6906C67.8417 84.0207 68.022 83.3334 68.0095 82.6286C67.9798 81.9143 67.7227 81.2647 67.2383 80.6797L69.4379 81.0948C70.1685 81.8844 70.5503 82.7949 70.5835 83.8263C70.6166 84.8576 70.2935 85.9831 69.614 87.2027Z" fill="white"/>
<path d="M61.3546 103.198C60.7775 104.382 60.031 105.331 59.1149 106.044C58.2074 106.739 57.1604 107.114 55.9738 107.171C54.7695 107.218 53.4338 106.884 51.9666 106.17L43.9062 102.242L45.9217 98.1057L53.3722 101.736C54.5565 102.313 55.5521 102.492 56.3589 102.273C57.1567 102.027 57.7795 101.445 58.2273 100.526C58.5374 99.8892 58.6805 99.259 58.6565 98.6349C58.6148 98.0021 58.3801 97.4065 57.9522 96.8481C57.5067 96.281 56.8509 95.7865 55.9848 95.3645L48.9319 91.9279L50.9474 87.7916L65.2122 94.7423L63.3001 98.6664L59.3759 96.7544L60.8649 96.594C61.6222 97.5536 62.0289 98.6267 62.085 99.8133C62.1321 100.974 61.8886 102.102 61.3546 103.198Z" fill="white"/>
<path d="M53.2172 121.379C52.6425 122.758 51.816 123.873 50.7376 124.723C49.6593 125.573 48.4213 126.091 47.0237 126.275C45.6337 126.442 44.1673 126.204 42.6244 125.561C41.0997 124.926 39.907 124.056 39.0463 122.952C38.1931 121.83 37.6885 120.587 37.5326 119.222C37.3586 117.85 37.5589 116.475 38.1335 115.095C38.6703 113.807 39.4001 112.822 40.3226 112.141C41.2528 111.442 42.3736 111.078 43.6849 111.05C44.9963 111.021 46.5142 111.365 48.2385 112.084C49.9448 112.794 51.2547 113.638 52.1684 114.615C53.0639 115.585 53.5911 116.646 53.75 117.798C53.9089 118.951 53.7313 120.144 53.2172 121.379ZM50.0383 119.192C50.3257 118.502 50.4232 117.808 50.3308 117.109C50.2385 116.41 49.9609 115.773 49.498 115.196C49.0245 114.594 48.3703 114.12 47.5354 113.772C46.6823 113.416 45.8844 113.286 45.1417 113.382C44.4066 113.459 43.7585 113.711 43.1974 114.137C42.6363 114.564 42.2121 115.122 41.9248 115.812C41.6299 116.52 41.5286 117.223 41.6209 117.922C41.7133 118.621 41.9871 119.267 42.4424 119.862C42.9053 120.438 43.5633 120.904 44.4164 121.259C45.2514 121.607 46.0455 121.746 46.7987 121.676C47.5414 121.581 48.1932 121.32 48.7544 120.893C49.3155 120.467 49.7435 119.9 50.0383 119.192ZM60.1074 119.105L51.8576 115.668L47.642 113.593L43.2517 111.86L40.2567 110.612L41.9466 106.555L61.8767 114.857L60.1074 119.105Z" fill="white"/>
<path d="M42.5468 149.709L26.0588 134.246L27.6061 129.788L50.1379 127.835L48.4939 132.572L28.7982 133.729L29.4171 131.946L44.152 145.083L42.5468 149.709ZM39.8757 143.911L36.8642 141.524L40.3454 131.493L44.1982 131.456L39.8757 143.911Z" fill="white"/>
</svg>
