<svg width="175" height="159" viewBox="0 0 175 159" fill="none" xmlns="http://www.w3.org/2000/svg">
<path fill-rule="evenodd" clip-rule="evenodd" d="M10.1305 55.1742L0 17.5972C47.7038 1.69595 118.376 -0.0708622 174.914 17.5972L165.127 54.7635C140.512 49.031 114.86 46 88.5 46C61.5173 46 35.2763 49.1759 10.1305 55.1742ZM163.089 62.5048L137.811 158.5C108 149.5 75.5 149 37.9863 158.5L12.2143 62.9036C36.6951 57.0818 62.2376 54 88.5 54C114.156 54 139.125 56.9412 163.089 62.5048Z" fill="#EF4136"/>
<path d="M91.3484 144H82.6319C82.6319 102.049 73.8623 83.8856 68.643 76.8102C64.7219 71.5037 58.6812 70.1572 53.5943 73.4573C48.6134 76.6782 47.2092 83.3312 50.4415 88.2945L43.1291 93.0202C37.3004 84.0704 39.8439 72.0053 48.8519 66.1707C57.7804 60.389 69.0404 62.6858 75.6639 71.6621C79.5586 76.9686 83.8771 85.4432 87.0034 98.934C90.1297 85.4696 94.4483 76.9686 98.3429 71.6621C104.966 62.7122 116.226 60.4154 125.155 66.1707C134.163 72.0053 136.706 84.044 130.851 93.0202L123.539 88.2945C126.771 83.3312 125.367 76.6782 120.386 73.4573C115.299 70.1572 109.258 71.5037 105.337 76.8102C100.118 83.8856 91.3484 102.049 91.3484 144Z" fill="white"/>
<path d="M115.415 36.9762C114.063 36.8611 112.774 36.5935 111.547 36.1732C110.341 35.7351 109.396 35.2403 108.713 34.6888L110.521 31.5274C111.208 32.0397 112.028 32.4845 112.983 32.8618C113.959 33.2211 114.927 33.4416 115.887 33.5234C116.945 33.6134 117.7 33.5495 118.153 33.3314C118.625 33.1151 118.88 32.7816 118.919 32.331C118.951 31.9588 118.798 31.6695 118.46 31.4631C118.144 31.2388 117.705 31.0535 117.146 30.9072C116.586 30.7609 115.967 30.6095 115.29 30.4532C114.632 30.2985 113.967 30.1137 113.294 29.8985C112.624 29.6638 112.018 29.3558 111.479 28.9743C110.939 28.5929 110.517 28.1031 110.212 27.5049C109.928 26.9084 109.824 26.1595 109.9 25.2582C109.986 24.259 110.345 23.4016 110.978 22.6858C111.631 21.9718 112.524 21.4459 113.658 21.1083C114.793 20.7511 116.125 20.6375 117.653 20.7676C118.731 20.8593 119.818 21.0703 120.915 21.4004C122.012 21.7306 122.913 22.1527 123.619 22.6667L121.813 25.7987C121.088 25.283 120.34 24.9135 119.569 24.69C118.82 24.4487 118.083 24.2971 117.358 24.2354C116.339 24.1487 115.583 24.2225 115.09 24.4567C114.596 24.691 114.331 25.0236 114.294 25.4547C114.261 25.8465 114.403 26.1546 114.719 26.3788C115.055 26.6048 115.502 26.8007 116.06 26.9666C116.618 27.1326 117.226 27.2928 117.884 27.4475C118.563 27.5843 119.238 27.77 119.909 28.0047C120.579 28.2394 121.175 28.5466 121.695 28.9264C122.237 29.2882 122.66 29.7682 122.964 30.3664C123.27 30.945 123.384 31.685 123.308 32.5862C123.224 33.5658 122.856 34.4127 122.203 35.1267C121.552 35.8212 120.65 36.3364 119.497 36.6724C118.363 37.01 117.002 37.1113 115.415 36.9762Z" fill="white"/>
<path d="M100.186 36.0105C98.378 35.9428 96.7996 35.5295 95.4507 34.7706C94.1214 34.0124 93.1062 33.0102 92.4051 31.764C91.7048 30.4981 91.3841 29.0792 91.443 27.5073C91.5026 25.9157 91.9187 24.5244 92.6914 23.3334C93.4844 22.1234 94.5324 21.1985 95.8354 20.5586C97.1391 19.8991 98.5966 19.5995 100.208 19.6598C101.76 19.718 103.143 20.1043 104.356 20.8187C105.589 21.5142 106.546 22.4946 107.226 23.7597C107.908 25.0052 108.217 26.4827 108.153 28.1922C108.146 28.369 108.128 28.575 108.1 28.81C108.072 29.0254 108.045 29.231 108.018 29.4268L95.1376 28.9443L95.2381 26.2622L105.701 26.6541L103.903 27.3837C103.934 26.5584 103.794 25.835 103.483 25.2133C103.171 24.5917 102.727 24.1028 102.15 23.7467C101.574 23.3709 100.893 23.1683 100.107 23.1389C99.3211 23.1094 98.6169 23.2602 97.9945 23.591C97.3925 23.903 96.9127 24.3671 96.5551 24.9834C96.1983 25.58 96.004 26.3007 95.9724 27.1457L95.9459 27.853C95.9135 28.7176 96.0715 29.4909 96.4198 30.173C96.7885 30.8361 97.3101 31.3574 97.9845 31.7369C98.6794 32.0974 99.4984 32.2953 100.442 32.3307C101.287 32.3623 102.028 32.2622 102.666 32.0303C103.324 31.7991 103.928 31.4381 104.478 30.9471L106.825 33.6913C106.067 34.4894 105.129 35.0938 104.012 35.5045C102.896 35.8955 101.62 36.0642 100.186 36.0105Z" fill="white"/>
<path d="M84.3838 35.4966L84.3755 19.6285L88.9766 19.6261L88.9849 35.4942L84.3838 35.4966ZM86.6749 17.4152C85.8294 17.4157 85.1411 17.1702 84.6099 16.6789C84.0787 16.1876 83.813 15.5782 83.8126 14.8507C83.8122 14.1232 84.0773 13.5135 84.608 13.0216C85.1386 12.5298 85.8267 12.2836 86.6722 12.2832C87.5177 12.2827 88.2061 12.5183 88.7372 12.99C89.2684 13.4419 89.5341 14.0317 89.5345 14.7592C89.5349 15.5261 89.2698 16.1653 88.7391 16.6768C88.2282 17.1686 87.5401 17.4148 86.6749 17.4152Z" fill="white"/>
<path d="M72.565 35.7568L72.0946 19.8957L76.4873 19.7654L76.6203 24.2466L75.9627 22.9678C76.4011 21.8335 77.1328 20.9659 78.1575 20.365C79.1817 19.7445 80.4407 19.4121 81.9344 19.3678L82.0604 23.6131C81.8632 23.5993 81.6861 23.5947 81.5288 23.5994C81.371 23.5844 81.2037 23.5795 81.0268 23.5848C79.7689 23.6221 78.7576 24.016 77.993 24.7665C77.2475 25.4968 76.8972 26.6187 76.9421 28.1321L77.1642 35.6204L72.565 35.7568Z" fill="white"/>
<path d="M49.0954 37.3799L56.6553 16.0774L61.36 15.7084L72.1778 35.5696L67.1791 35.9617L58.2264 18.3802L60.1082 18.2326L53.9765 36.9971L49.0954 37.3799ZM53.3366 32.6095L54.3173 28.8936L64.9028 28.0634L66.4803 31.5787L53.3366 32.6095Z" fill="white"/>
</svg>
