<svg width="108" height="109" viewBox="0 0 108 109" fill="none" xmlns="http://www.w3.org/2000/svg">
<path d="M0.651933 84.4657C-0.471599 86.0386 -0.107278 88.2245 1.46567 89.3481L27.0983 107.657C28.6712 108.781 30.8571 108.416 31.9807 106.843C33.1042 105.27 32.7399 103.084 31.1669 101.961L8.3824 85.6863L24.6571 62.9017C25.7806 61.3288 25.4163 59.1429 23.8433 58.0193C22.2704 56.8958 20.0845 57.2601 18.9609 58.8331L0.651933 84.4657ZM100.617 0.102967C91.8858 33.0317 83.485 50.6548 69.7511 61.642C55.8889 72.7317 36.0774 77.5222 2.9246 83.0476L4.0754 89.9524C36.9226 84.4778 58.6111 79.5183 74.1239 67.108C89.765 54.5952 98.6142 34.9683 107.383 1.89703L100.617 0.102967Z" fill="white"/>
</svg>
