<svg width="781" height="781" viewBox="0 0 781 781" fill="none" xmlns="http://www.w3.org/2000/svg">
<path fill-rule="evenodd" clip-rule="evenodd" d="M289.157 13.3857C81.1056 69.133 -42.3616 282.984 13.3857 491.036C69.133 699.088 282.984 822.555 491.036 766.808C699.088 711.061 822.555 497.209 766.808 289.157C711.061 81.1056 497.209 -42.3616 289.157 13.3857ZM20.0977 485.097L172.728 444.199C163.614 407.637 164.072 370.858 172.547 336.556L19.8864 295.65C4.45832 355.894 3.556 420.728 20.0977 485.097ZM21.9523 287.922L174.604 328.825C184.624 293.714 203.111 261.475 228.34 235.095L116.584 123.339C71.8013 169.342 39.1831 226.064 21.9523 287.922ZM328.267 174.798C291.579 185.321 259.609 204.458 233.972 229.414L122.224 117.665C166.842 73.7123 222.885 40.1578 287.37 22.1682L328.267 174.798ZM443.638 172.547C409.335 164.072 372.556 163.614 335.994 172.728L295.097 20.0977C359.465 3.556 424.299 4.45832 484.543 19.8864L443.638 172.547ZM545.858 229.07C519.339 203.467 486.818 184.72 451.369 174.604L492.272 21.9523C554.468 39.2774 611.472 72.1587 657.609 117.32L545.858 229.07ZM605.395 328.267C594.976 291.939 576.11 260.237 551.513 234.729L663.267 122.975C706.827 167.44 740.09 223.169 757.988 287.235L754.446 288.325L754.447 288.328L605.395 328.267ZM759.15 295.35L607.466 335.994C616.681 372.963 616.11 410.153 607.361 444.781L760.013 485.684C775.723 425.12 776.742 359.875 760.097 295.101L759.15 295.35ZM550.776 546.217C576.283 519.915 595.026 487.67 605.263 452.501L757.923 493.407C740.47 555.321 707.59 612.046 662.524 657.966L550.776 546.217ZM451.927 605.395C488.084 595.025 519.658 576.287 545.104 551.86L656.861 663.616C612.424 707.035 556.775 740.185 492.824 758.025L451.927 605.395ZM335.412 607.361C370.04 616.11 407.231 616.681 444.199 607.466L485.097 760.096C420.322 776.742 355.075 775.723 294.509 760.013L335.412 607.361ZM234.734 551.508C260.897 576.642 292.86 595.125 327.692 605.263L286.787 757.923C225.21 740.566 168.767 707.948 122.981 663.261L234.734 551.508ZM117.315 657.614L229.065 545.863C204.28 520.287 185.272 488.444 174.798 451.927L22.1682 492.824C40.1099 557.137 73.5338 613.053 117.315 657.614ZM446.002 598.737C561.23 567.861 629.612 449.421 598.737 334.192C567.861 218.963 449.421 150.581 334.192 181.457C218.963 212.332 150.581 330.773 181.457 446.002C212.332 561.23 330.773 629.612 446.002 598.737Z" fill="white"/>
</svg>
