<svg width="198" height="175" viewBox="0 0 198 175" fill="none" xmlns="http://www.w3.org/2000/svg">
<path fill-rule="evenodd" clip-rule="evenodd" d="M103.326 10.1305L140.903 0C156.804 47.7038 158.571 118.376 140.903 174.914L103.737 165.127C109.469 140.512 112.5 114.86 112.5 88.5C112.5 61.5173 109.324 35.2763 103.326 10.1305ZM95.9952 163.089L-7.86665e-08 137.811C9 108 9.5 75.5 -7.86665e-08 37.9863L95.5964 12.2143C101.418 36.6951 104.5 62.2376 104.5 88.5C104.5 114.156 101.559 139.125 95.9952 163.089Z" fill="#FFBB10"/>
<path d="M60.2327 111.129C60.2327 121.537 51.7579 130 41.3354 130C30.913 130 22.4382 121.537 22.4382 111.129C22.4382 100.72 30.913 92.2572 41.3354 92.2572C51.7579 92.2572 60.2327 100.72 60.2327 111.129ZM31.0972 111.129C31.0972 116.779 35.7031 121.353 41.3354 121.353C46.9678 121.353 51.5737 116.753 51.5737 111.129C51.5737 105.504 46.9678 100.904 41.3354 100.904C35.7031 100.904 31.0972 105.504 31.0972 111.129Z" fill="white"/>
<path d="M37.4665 52.7535C28.1758 59.85 26.1492 74.2006 25.7544 82.0856C24.9648 98.3812 29.5181 114.072 34.3082 118.54L28.3863 124.848C21.0696 118.015 16.2531 99.4588 17.0954 81.6651C17.8849 65.422 23.2541 52.7273 32.2026 45.8936L37.4665 52.7535Z" fill="white"/>
<path d="M85.5782 63.8713C85.5782 74.2795 77.1034 82.7427 66.6809 82.7427C56.2585 82.7427 47.7837 74.2795 47.7837 63.8713C47.7837 53.4632 56.2585 45 66.6809 45C77.1034 45 85.5782 53.4632 85.5782 63.8713ZM56.4427 63.8713C56.4427 69.5222 61.0486 74.0955 66.6809 74.0955C72.3133 74.0955 76.9192 69.496 76.9192 63.8713C76.9192 58.2467 72.3133 53.6471 66.6809 53.6471C61.0486 53.6471 56.4427 58.2467 56.4427 63.8713Z" fill="white"/>
<path d="M91 89.1558C91 90.5488 90.9737 91.9418 90.8947 93.3348C90.1051 109.578 84.736 122.273 75.7874 129.133L70.5236 122.273C79.8143 115.15 81.8409 100.826 82.2357 92.9143C83.0516 76.645 78.472 60.9276 73.6819 56.4858L79.6037 50.1778C86.3415 56.4595 91 72.7288 91 89.1821V89.1558Z" fill="white"/>
<path d="M121.646 130.723L137.356 132.955L136.738 137.306L132.3 136.675L133.672 136.245C134.715 136.869 135.446 137.738 135.864 138.85C136.301 139.964 136.415 141.262 136.205 142.741L132 142.144C132.047 141.952 132.081 141.778 132.104 141.622C132.145 141.469 132.178 141.305 132.203 141.13C132.38 139.884 132.164 138.821 131.554 137.94C130.961 137.081 129.915 136.545 128.416 136.332L120.999 135.279L121.646 130.723Z" fill="white"/>
<path d="M122.534 120.832C122.71 119.031 123.217 117.481 124.056 116.18C124.892 114.898 125.953 113.945 127.239 113.32C128.545 112.696 129.98 112.461 131.546 112.614C133.131 112.769 134.495 113.268 135.638 114.11C136.798 114.975 137.658 116.076 138.219 117.415C138.799 118.756 139.011 120.229 138.854 121.833C138.703 123.379 138.235 124.736 137.449 125.904C136.681 127.094 135.645 127.99 134.341 128.594C133.057 129.199 131.564 129.419 129.861 129.253C129.685 129.236 129.481 129.206 129.248 129.163C129.034 129.123 128.831 129.083 128.637 129.044L129.89 116.216L132.561 116.477L131.543 126.898L130.923 125.059C131.745 125.14 132.475 125.043 133.115 124.77C133.754 124.496 134.268 124.082 134.658 123.528C135.068 122.975 135.311 122.307 135.388 121.524C135.464 120.742 135.356 120.03 135.063 119.389C134.787 118.769 134.353 118.262 133.759 117.868C133.185 117.476 132.477 117.239 131.636 117.157L130.931 117.088C130.07 117.004 129.289 117.116 128.587 117.422C127.903 117.751 127.351 118.24 126.932 118.891C126.531 119.563 126.284 120.368 126.192 121.308C126.11 122.149 126.165 122.896 126.359 123.547C126.55 124.217 126.874 124.842 127.332 125.42L124.452 127.598C123.7 126.794 123.153 125.822 122.81 124.682C122.487 123.544 122.395 122.261 122.534 120.832Z" fill="white"/>
<path d="M123.809 104.084C123.888 102.375 124.303 100.869 125.053 99.5653C125.822 98.2626 126.844 97.2572 128.117 96.5489C129.389 95.8602 130.811 95.5526 132.382 95.6259C133.973 95.7002 135.36 96.1389 136.543 96.9421C137.745 97.7659 138.658 98.8616 139.283 100.229C139.928 101.598 140.211 103.137 140.131 104.846C140.053 106.515 139.632 107.952 138.867 109.156C138.122 110.362 137.087 111.229 135.763 111.758L134.014 108.103C134.78 107.726 135.354 107.231 135.737 106.619C136.119 106.026 136.327 105.367 136.361 104.64C136.398 103.854 136.254 103.139 135.93 102.494C135.605 101.849 135.128 101.325 134.497 100.921C133.866 100.538 133.088 100.324 132.165 100.281C131.242 100.238 130.448 100.378 129.783 100.701C129.118 101.044 128.593 101.522 128.211 102.134C127.828 102.746 127.618 103.445 127.581 104.23C127.547 104.957 127.683 105.633 127.989 106.257C128.313 106.902 128.848 107.449 129.595 107.897L127.484 111.371C126.235 110.722 125.286 109.763 124.636 108.492C124.007 107.223 123.731 105.753 123.809 104.084Z" fill="white"/>
<path d="M140.591 86.0288C140.6 87.2872 140.353 88.4099 139.848 89.3967C139.364 90.403 138.603 91.1951 137.565 91.7729C136.547 92.3505 135.231 92.6451 133.619 92.6568L124.535 92.7226L124.502 88.1216L132.878 88.0609C134.156 88.0516 135.098 87.7597 135.703 87.1851C136.309 86.6301 136.608 85.8414 136.6 84.8189C136.595 84.0914 136.433 83.4339 136.114 82.8463C135.815 82.2782 135.35 81.8293 134.718 81.4996C134.087 81.1895 133.279 81.0381 132.296 81.0452L124.451 81.102L124.417 76.501L140.285 76.3861L140.317 80.7806L135.922 80.8125L137.244 79.977C138.31 80.5396 139.131 81.3496 139.709 82.4073C140.287 83.4649 140.581 84.6721 140.591 86.0288Z" fill="white"/>
<path d="M124.023 68.8403L127.114 68.6475L127.772 68.3109L133.307 67.9657C134.288 67.9045 135.034 67.5526 135.546 66.91C136.058 66.2869 136.276 65.3572 136.199 64.1209C136.147 63.277 135.957 62.4515 135.631 61.6444C135.326 60.8557 134.93 60.1908 134.443 59.6499L137.549 57.8012C138.211 58.6268 138.747 59.6375 139.156 60.8335C139.566 62.0294 139.81 63.2554 139.888 64.5114C140.039 66.9252 139.586 68.8349 138.531 70.2404C137.476 71.6459 135.742 72.4239 133.328 72.5745L124.291 73.1382L124.023 68.8403ZM123.486 64.0273C123.409 62.7909 123.549 61.7183 123.906 60.8095C124.283 59.8994 124.819 59.1863 125.516 58.67C126.213 58.1537 127.013 57.8674 127.915 57.8111C128.857 57.7523 129.696 57.9266 130.43 58.3339C131.166 58.7608 131.762 59.4625 132.216 60.4389C132.691 61.4141 132.978 62.7063 133.079 64.3155L133.341 68.5251L130.663 68.6921L130.431 64.983C130.364 63.9037 130.141 63.1689 129.762 62.7788C129.384 62.4084 128.93 62.2397 128.4 62.2727C127.812 62.3094 127.355 62.5645 127.03 63.0379C126.725 63.5297 126.598 64.1779 126.649 64.9826C126.696 65.7479 126.916 66.4238 127.307 67.0101C127.718 67.5952 128.285 68.0031 129.009 68.2338L126.933 69.0725C125.892 68.8026 125.079 68.2425 124.494 67.3925C123.909 66.5424 123.573 65.4207 123.486 64.0273Z" fill="white"/>
<path d="M121.932 48.2292C121.743 46.6478 121.82 45.1434 122.164 43.716C122.53 42.3057 123.131 41.0454 123.968 39.9351C124.806 38.8248 125.835 37.9094 127.056 37.1889C128.279 36.4879 129.661 36.045 131.204 35.8603C132.746 35.6755 134.194 35.7793 135.548 36.1716C136.905 36.5834 138.121 37.2299 139.197 38.111C140.275 39.0117 141.149 40.1051 141.818 41.3915C142.506 42.6754 142.946 44.1179 143.138 45.7188C143.351 47.4955 143.23 49.1338 142.776 50.6339C142.344 52.1511 141.591 53.4691 140.517 54.588L137.341 51.879C138.057 51.0803 138.559 50.228 138.847 49.3222C139.154 48.4141 139.246 47.4524 139.125 46.4372C139.01 45.4805 138.749 44.6207 138.341 43.8576C137.932 43.0946 137.4 42.4553 136.744 41.9397C136.088 41.4242 135.34 41.0484 134.5 40.8124C133.662 40.5959 132.755 40.5461 131.779 40.6631C130.803 40.78 129.933 41.0426 129.17 41.4508C128.41 41.8786 127.771 42.4204 127.256 43.0763C126.74 43.7322 126.374 44.479 126.158 45.3169C125.941 46.1548 125.89 47.0521 126.005 48.0087C126.127 49.0239 126.434 49.9377 126.927 50.75C127.44 51.5599 128.149 52.2672 129.053 52.8718L126.606 56.2542C125.299 55.4207 124.246 54.319 123.448 52.9491C122.652 51.5987 122.147 50.0254 121.932 48.2292Z" fill="white"/>
</svg>
