<svg width="174" height="175" viewBox="0 0 174 175" fill="none" xmlns="http://www.w3.org/2000/svg">
<path fill-rule="evenodd" clip-rule="evenodd" d="M70.1742 164.783L32.5972 174.914C16.6959 127.21 14.9291 56.5378 32.5972 0L69.7635 9.78674C64.031 34.4015 61 60.0537 61 86.4138C61 113.397 64.1759 139.638 70.1742 164.783ZM77.5048 11.8252L173.5 37.1029C164.5 66.9138 164 99.4138 173.5 136.927L77.9036 162.7C72.0818 138.219 69 112.676 69 86.4138C69 60.7577 71.9412 35.7886 77.5048 11.8252Z" fill="#2B6FB8"/>
<path d="M134.345 100.991V108.705C95.724 108.705 89.6235 114.589 84.8838 128L77.6101 125.444C84.3911 106.243 96.5922 100.991 134.369 100.991H134.345Z" fill="white"/>
<path d="M134.345 67.1125V74.826H131.788C97.3899 74.826 89.952 75.0605 85.5173 83.196C90.4212 93.09 98.6335 101.014 134.345 101.014V108.728C96.1229 108.728 84.6492 99.936 77.7274 84.7668L77 83.1726L77.7274 81.5783C84.3207 67.136 94.3631 67.136 131.788 67.136H134.345V67.1125Z" fill="white"/>
<path d="M160.977 91.6832C160.977 92.9024 160.906 93.723 160.883 93.8402L153.21 93.0196C153.21 93.0196 153.914 84.6965 149.479 81.8831L149.268 81.7424C147.344 80.3357 144.904 78.8586 142.299 77.2878C140.751 76.35 139.155 75.3887 137.583 74.3806C136.527 74.6619 135.448 74.826 134.369 74.826V72.247C128.479 68.1207 123.505 63.244 122.872 56.6324C122.168 49.4816 126.86 42.7294 133.547 41.2758C137.255 40.4552 141.244 41.4868 144.505 44.0893C148.165 47.0199 150.441 51.6152 150.441 56.0698C150.441 61.3215 148.259 66.3154 144.927 69.8322C145.397 70.1135 145.866 70.3949 146.312 70.6762C149.01 72.294 151.544 73.8413 153.726 75.4122C160.179 79.562 161 87.7444 161 91.6598L160.977 91.6832ZM138.17 65.5182C140.61 63.5488 142.675 59.9617 142.675 56.0698C142.675 53.9363 141.478 51.5917 139.625 50.1147C138.803 49.4582 137.114 48.4032 135.166 48.8252C132.28 49.4582 130.216 52.6468 130.521 55.9291C130.849 59.399 134.064 62.5876 138.17 65.5417V65.5182Z" fill="white"/>
<path d="M38.1458 18.6344C38.3726 17.3966 38.8261 16.3402 39.5062 15.4654C40.1705 14.5676 41.0666 13.9322 42.1945 13.5592C43.303 13.1826 44.6503 13.1397 46.2362 13.4304L55.1717 15.0681L54.3422 19.5939L46.103 18.0838C44.8458 17.8534 43.8661 17.9636 43.1637 18.4146C42.4649 18.8463 42.0233 19.565 41.839 20.5707C41.7078 21.2863 41.7438 21.9626 41.9469 22.5996C42.1342 23.2136 42.5072 23.7418 43.0658 24.184C43.628 24.6069 44.3926 24.9069 45.3597 25.0842L53.0767 26.4986L52.2472 31.0244L36.6391 28.1637L37.4314 23.841L41.7541 24.6332L40.2997 25.2063C39.3581 24.454 38.7025 23.5042 38.3331 22.357C37.9636 21.2098 37.9012 19.9689 38.1458 18.6344Z" fill="white"/>
<path d="M50.6558 42.7509L34.9309 40.624L35.5199 36.2689L39.9626 36.8698L38.5936 37.3097C37.5461 36.6918 36.8097 35.8283 36.3843 34.7191C35.9394 33.6073 35.8171 32.3109 36.0174 30.83L40.2263 31.3993C40.1805 31.5915 40.147 31.7656 40.1259 31.9215C40.0854 32.0747 40.0532 32.239 40.0295 32.4144C39.8608 33.6615 40.0843 34.7235 40.6998 35.6004C41.2985 36.4553 42.3481 36.9841 43.8485 37.1871L51.2725 38.1912L50.6558 42.7509Z" fill="white"/>
<path d="M49.7419 53.646C49.5904 55.3302 49.103 56.7967 48.2799 58.0453C47.4586 59.2744 46.4065 60.2162 45.1236 60.8708C43.8228 61.5039 42.3891 61.75 40.8224 61.6091C39.2361 61.4663 37.8693 60.9682 36.722 60.1148C35.557 59.24 34.6899 58.1255 34.1208 56.7713C33.5338 55.3957 33.3161 53.8658 33.4676 52.1816C33.6174 50.517 34.1039 49.0603 34.927 47.8116C35.7305 46.5612 36.7728 45.6185 38.054 44.9835C39.3351 44.3486 40.7787 44.1034 42.3846 44.2479C43.9513 44.3889 45.318 44.887 46.4849 45.7422C47.6321 46.5956 48.4992 47.7101 49.0862 49.0857C49.6731 50.4612 49.8917 51.9813 49.7419 53.646ZM45.9818 53.3076C46.0505 52.5439 45.9359 51.8426 45.6381 51.2037C45.3402 50.5649 44.884 50.0402 44.2694 49.6295C43.6353 49.2171 42.8678 48.9703 41.9669 48.8893C41.0465 48.8065 40.2472 48.9122 39.5693 49.2066C38.8913 49.5009 38.3487 49.9358 37.9416 50.5112C37.5344 51.0866 37.2965 51.7562 37.2278 52.5199C37.159 53.2837 37.2736 53.985 37.5715 54.6238C37.8694 55.2626 38.3247 55.7972 38.9375 56.2274C39.5521 56.6381 40.3196 56.8848 41.24 56.9677C42.1409 57.0487 42.9401 56.943 43.6377 56.6504C44.3174 56.3364 44.8609 55.8918 45.268 55.3164C45.6751 54.741 45.9131 54.0714 45.9818 53.3076Z" fill="white"/>
<path d="M48.6403 70.0815C48.5753 71.7909 48.1735 73.3006 47.435 74.6106C46.6769 75.9199 45.6643 76.9341 44.3973 77.6534C43.131 78.353 41.7119 78.6729 40.14 78.6131C38.5485 78.5526 37.1578 78.1259 35.9679 77.3329C34.7592 76.5196 33.8363 75.4317 33.1994 74.0695C32.5428 72.7065 32.2471 71.1702 32.312 69.4608C32.3755 67.7906 32.7845 66.3501 33.5389 65.1391C34.2737 63.9273 35.3007 63.0514 36.6199 62.5112L38.4001 66.1503C37.6378 66.5345 37.0678 67.0343 36.6902 67.6496C36.3134 68.2453 36.1111 68.9067 36.0835 69.6337C36.0536 70.4196 36.2036 71.1337 36.5334 71.7759C36.8631 72.4181 37.3451 72.9382 37.9794 73.3362C38.6143 73.7145 39.3936 73.9212 40.3171 73.9563C41.2406 73.9914 42.0332 73.8445 42.6951 73.5155C43.3577 73.1668 43.8778 72.6848 44.2554 72.0695C44.6329 71.4541 44.8367 70.7535 44.8666 69.9675C44.8942 69.2405 44.7526 68.5661 44.4417 67.9443C44.1119 67.3021 43.5717 66.7601 42.8211 66.3184L44.9019 62.826C46.1567 63.4641 47.1142 64.4154 47.7745 65.6802C48.4152 66.9442 48.7038 68.4113 48.6403 70.0815Z" fill="white"/>
<path d="M48.0998 85.6754L32.2317 85.6465L32.2401 81.0454L48.1082 81.0742L48.0998 85.6754ZM30.0238 83.3419C30.0223 84.1874 29.7753 84.8752 29.2827 85.4052C28.7902 85.9352 28.1801 86.1996 27.4526 86.1982C26.7251 86.1969 26.116 85.9303 25.6254 85.3985C25.1348 84.8668 24.8902 84.1781 24.8918 83.3326C24.8933 82.4871 25.1305 81.7993 25.6034 81.2693C26.0566 80.7392 26.647 80.4748 27.3745 80.4761C28.1414 80.4775 28.78 80.7441 29.2902 81.276C29.7809 81.7881 30.0254 82.4767 30.0238 83.3419Z" fill="white"/>
<path d="M48.3323 97.4947L32.4701 97.928L32.3501 93.535L36.8316 93.4125L35.5513 94.0671C34.418 93.626 33.5521 92.8924 32.9536 91.8662C32.3355 90.8405 32.006 89.5808 31.9652 88.087L36.2109 87.971C36.1966 88.1681 36.1916 88.3452 36.1959 88.5025C36.1805 88.6603 36.1753 88.8276 36.1801 89.0045C36.2145 90.2625 36.606 91.2746 37.3548 92.041C38.0833 92.7882 39.2043 93.1412 40.7178 93.0998L48.2067 92.8952L48.3323 97.4947Z" fill="white"/>
<path d="M49.1591 108.07C49.2583 109.403 49.0509 110.592 48.537 111.636C48.0231 112.679 47.1892 113.53 46.0354 114.188C44.8605 114.827 43.3514 115.215 41.5081 115.353C39.6453 115.491 38.0961 115.34 36.8606 114.9C35.6251 114.459 34.676 113.761 34.0134 112.804C33.3507 111.848 32.9676 110.674 32.8641 109.282C32.7533 107.791 32.9973 106.432 33.5961 105.205C34.1738 103.959 35.0451 102.948 36.2098 102.171C37.373 101.375 38.7782 100.915 40.4254 100.793C42.0921 100.669 43.5596 100.915 44.8279 101.53C46.0947 102.126 47.1059 102.997 47.8616 104.144C48.6158 105.271 49.0483 106.58 49.1591 108.07ZM55.3256 117.016L33.795 118.618L33.4691 114.235L36.7045 113.994L41.4172 113.733L46.0721 113.091L54.9844 112.428L55.3256 117.016ZM45.4533 109.144C45.3964 108.379 45.1696 107.716 44.7729 107.154C44.3747 106.572 43.839 106.129 43.1656 105.824C42.4712 105.501 41.673 105.373 40.771 105.44C39.8494 105.509 39.0789 105.753 38.4595 106.174C37.8386 106.575 37.3743 107.093 37.0666 107.727C36.7574 108.341 36.6312 109.031 36.6881 109.796C36.7449 110.561 36.9725 111.234 37.3706 111.815C37.7688 112.397 38.3045 112.84 38.9779 113.145C39.6512 113.45 40.4487 113.568 41.3703 113.5C42.2723 113.432 43.0436 113.198 43.684 112.795C44.3049 112.394 44.7692 111.876 45.0769 111.242C45.3847 110.608 45.5101 109.909 45.4533 109.144Z" fill="white"/>
<path d="M50.5273 125.058L47.4562 125.457L46.8216 125.837L41.3229 126.552C40.348 126.679 39.6269 127.08 39.1595 127.756C38.6897 128.412 38.5346 129.354 38.6944 130.583C38.8035 131.421 39.0478 132.232 39.4274 133.015C39.7848 133.782 40.2246 134.419 40.7466 134.926L37.7717 136.978C37.0556 136.199 36.4532 135.227 35.9644 134.061C35.4757 132.895 35.1501 131.688 34.9878 130.44C34.6758 128.042 34.999 126.106 35.9574 124.633C36.9158 123.16 38.5942 122.268 40.9926 121.956L49.9718 120.787L50.5273 125.058ZM51.3853 129.824C51.5451 131.052 51.4774 132.132 51.182 133.063C50.8672 133.996 50.3795 134.743 49.7189 135.305C49.0584 135.867 48.2796 136.206 47.3827 136.323C46.4467 136.445 45.5986 136.327 44.8383 135.97C44.0755 135.593 43.4344 134.933 42.915 133.989C42.3762 133.048 42.0028 131.778 41.7948 130.179L41.2506 125.997L43.9122 125.65L44.3916 129.336C44.5312 130.408 44.803 131.126 45.2073 131.49C45.609 131.834 46.0731 131.972 46.5996 131.904C47.1845 131.828 47.6233 131.543 47.916 131.049C48.1866 130.537 48.2699 129.882 48.1659 129.083C48.0669 128.322 47.8026 127.663 47.373 127.104C46.9239 126.548 46.3306 126.179 45.5932 125.997L47.6077 125.021C48.6648 125.221 49.5136 125.725 50.1542 126.534C50.7948 127.343 51.2052 128.439 51.3853 129.824Z" fill="white"/>
<path d="M53.9947 145.482C54.2897 147.047 54.3134 148.554 54.066 150.001C53.7955 151.433 53.2798 152.73 52.5187 153.894C51.7576 155.058 50.7922 156.04 49.6225 156.841C48.4492 157.623 47.0993 158.157 45.5728 158.445C44.0463 158.733 42.5944 158.726 41.2171 158.425C39.8362 158.105 38.5794 157.542 37.4469 156.735C36.3107 155.909 35.3657 154.876 34.612 153.638C33.839 152.403 33.3032 150.993 33.0046 149.408C32.6732 147.65 32.6837 146.007 33.0362 144.48C33.3657 142.937 34.0287 141.572 35.0253 140.383L38.376 142.873C37.7148 143.718 37.2712 144.602 37.0449 145.525C36.7994 146.452 36.7713 147.418 36.9607 148.423C37.1392 149.369 37.4576 150.21 37.9161 150.944C38.3746 151.678 38.9483 152.28 39.6372 152.75C40.3262 153.221 41.0977 153.546 41.9519 153.725C42.8024 153.885 43.7107 153.874 44.6769 153.691C45.643 153.509 46.4931 153.189 47.227 152.731C47.9574 152.253 48.5577 151.669 49.0282 150.98C49.4986 150.292 49.8137 149.522 49.9736 148.671C50.1334 147.821 50.1241 146.922 49.9457 145.975C49.7563 144.97 49.3883 144.079 48.8416 143.302C48.2755 142.528 47.5212 141.87 46.5785 141.327L48.7929 137.789C50.1537 138.533 51.278 139.561 52.1658 140.875C53.05 142.169 53.6596 143.705 53.9947 145.482Z" fill="white"/>
</svg>
