<svg width="221" height="229" viewBox="0 0 221 229" fill="none" xmlns="http://www.w3.org/2000/svg">
<path fill-rule="evenodd" clip-rule="evenodd" d="M171.874 60.4361L209.482 70.4514C199.401 119.715 165.595 181.802 122.025 221.931L94.7319 194.872C112.004 176.422 127.455 155.722 140.635 132.893C154.126 109.526 164.496 85.2122 171.874 60.4361ZM89.047 189.237L18.5515 119.348C41.2512 98.0307 57.9342 70.1349 68.4638 32.8971L164.139 58.3761C156.94 82.488 146.838 106.149 133.707 128.893C120.879 151.112 105.847 171.265 89.047 189.237Z" fill="#F8DF06"/>
<path d="M107.229 134.547C102.493 142.749 91.9821 145.545 83.8011 140.822C75.62 136.098 72.7988 125.575 77.521 117.395C82.2432 109.216 92.7676 106.398 100.949 111.121C109.13 115.844 111.951 126.368 107.229 134.547ZM85.0165 121.723C82.6818 125.767 84.0599 130.979 88.1275 133.328C92.1952 135.676 97.3853 134.286 99.7332 130.22C102.081 126.153 100.69 120.963 96.6222 118.615C92.5545 116.266 87.3644 117.656 85.0165 121.723Z" fill="white"/>
<path d="M138.775 108.194C134.673 115.3 125.554 117.742 118.447 113.639C118.059 113.414 117.67 113.19 117.308 112.92C116.31 112.222 115.413 111.4 114.606 110.476C112.539 108.461 86.8549 83.5492 84.6648 81.4318L83.8299 80.767C83.0767 80.1189 82.4079 79.6413 81.6994 79.2323C75.6208 75.7228 67.7996 77.8175 64.2909 83.8947C60.7822 89.9719 62.8788 97.7926 68.9574 101.302C69.8487 101.817 70.8287 102.23 71.8158 102.526L71.756 102.735C74.1073 103.148 77.8632 104.19 84.1427 105.926L96.5284 109.331L94.2306 117.691C94.2306 117.691 79.403 113.608 72.7051 111.752C72.6788 111.797 69.4133 110.856 69.4133 110.856C67.7398 110.377 66.126 109.689 64.6178 108.819C54.3801 102.908 50.8632 89.7893 56.7726 79.554C62.6819 69.3187 75.8014 65.8051 86.0391 71.7158C87.2274 72.4019 88.3498 73.2022 89.3833 74.1035L90.5672 75.0612L105.683 89.7282C115.235 98.99 119.234 102.883 120.933 104.9L121.12 104.734C121.462 105.144 121.867 105.499 122.32 105.822C122.48 105.915 122.64 106.007 122.8 106.099C125.771 107.814 129.555 106.801 131.27 103.831C132.985 100.861 131.97 97.0766 128.999 95.3614L133.339 87.8449C140.446 91.9482 142.891 101.066 138.788 108.172L138.775 108.194Z" fill="white"/>
<path d="M177.283 128.285C176.526 129.767 175.542 130.928 174.332 131.766C173.13 132.586 171.823 133.06 170.411 133.187C168.99 133.287 167.59 132.985 166.211 132.281C164.815 131.567 163.75 130.61 163.016 129.409C162.273 128.183 161.89 126.846 161.868 125.4C161.837 123.928 162.201 122.451 162.958 120.969C163.706 119.503 164.686 118.352 165.896 117.514C167.089 116.667 168.388 116.189 169.791 116.08C171.194 115.97 172.603 116.277 174.016 116.999C175.395 117.703 176.461 118.66 177.212 119.87C177.946 121.071 178.329 122.407 178.36 123.879C178.39 125.351 178.031 126.82 177.283 128.285ZM173.973 126.595C174.317 125.922 174.47 125.24 174.432 124.547C174.395 123.854 174.171 123.207 173.761 122.606C173.333 121.997 172.723 121.489 171.93 121.084C171.12 120.67 170.351 120.473 169.623 120.493C168.896 120.513 168.241 120.711 167.658 121.087C167.074 121.463 166.611 121.987 166.268 122.659C165.924 123.331 165.771 124.014 165.809 124.707C165.846 125.4 166.065 126.055 166.467 126.673C166.877 127.274 167.488 127.781 168.298 128.195C169.091 128.6 169.86 128.797 170.604 128.786C171.34 128.749 172 128.543 172.583 128.167C173.167 127.791 173.63 127.267 173.973 126.595Z" fill="white"/>
<path d="M168.394 144.684C167.5 146.224 166.412 147.406 165.129 148.228C163.856 149.033 162.516 149.453 161.109 149.487C159.685 149.511 158.304 149.135 156.964 148.358C155.608 147.571 154.591 146.567 153.912 145.345C153.226 144.097 152.906 142.758 152.952 141.33C152.98 139.892 153.393 138.487 154.19 137.114C154.957 135.791 155.931 134.768 157.112 134.043C158.287 133.292 159.581 132.913 160.995 132.905C162.393 132.888 163.82 133.302 165.276 134.147C165.427 134.235 165.598 134.345 165.789 134.478C165.963 134.602 166.13 134.721 166.287 134.835L159.92 145.809L157.634 144.483L162.807 135.568L162.611 137.468C161.908 137.06 161.214 136.848 160.53 136.832C159.846 136.815 159.216 136.975 158.64 137.312C158.047 137.64 157.556 138.138 157.168 138.808C156.779 139.478 156.585 140.16 156.585 140.854C156.578 141.521 156.76 142.152 157.131 142.748C157.485 143.334 158.022 143.835 158.742 144.253L159.344 144.603C160.081 145.03 160.826 145.25 161.58 145.262C162.327 145.248 163.021 145.035 163.662 144.624C164.297 144.186 164.847 143.566 165.313 142.762C165.731 142.042 165.986 141.351 166.079 140.689C166.182 140.01 166.147 139.319 165.974 138.614L169.444 137.841C169.788 138.868 169.88 139.963 169.721 141.124C169.546 142.275 169.103 143.462 168.394 144.684Z" fill="white"/>
<path d="M154.503 166.566L137.476 155.469L140.044 151.528L153.86 160.533L159.425 151.995L162.636 154.088L154.503 166.566Z" fill="white"/>
</svg>
