<svg width="175" height="166" viewBox="0 0 175 166" fill="none" xmlns="http://www.w3.org/2000/svg">
<path fill-rule="evenodd" clip-rule="evenodd" d="M164.783 103.326L174.914 140.903C127.21 156.804 56.5378 158.571 0 140.903L9.78674 103.737C34.4015 109.469 60.0537 112.5 86.4138 112.5C113.397 112.5 139.638 109.324 164.783 103.326ZM11.8252 95.9952L37.1029 -7.86665e-08C66.9138 9 99.4138 9.5 136.927 -7.86665e-08L162.7 95.5964C138.219 101.418 112.676 104.5 86.4138 104.5C60.7577 104.5 35.7886 101.559 11.8252 95.9952Z" fill="#3DB64F"/>
<path d="M127 74.3042H87.5592L99.8235 65.9978C106.29 61.6232 110.137 54.3689 110.137 46.5887C110.137 33.6584 99.5447 23.1093 86.5 23.1093C73.4553 23.1093 62.8634 33.6307 62.8634 46.5887C62.8634 54.3413 66.7099 61.5955 73.1765 65.9978L85.4408 74.3042H46V65.1949H59.5743C55.8114 59.7958 53.693 53.3445 53.693 46.5887C53.693 28.6192 68.4102 14 86.5 14C104.59 14 119.307 28.6192 119.307 46.5887C119.307 53.3445 117.216 59.7958 113.426 65.1949H127V74.3042Z" fill="white"/>
<path d="M127 81.8907H46.0279V91H127V81.8907Z" fill="white"/>
<path d="M119.152 142.979L118.9 139.941L118.555 139.3L118.104 133.86C118.023 132.895 117.662 132.168 117.019 131.677C116.395 131.185 115.476 130.99 114.261 131.091C113.431 131.16 112.623 131.363 111.835 131.7C111.065 132.016 110.419 132.42 109.896 132.91L108.014 129.891C108.813 129.222 109.797 128.674 110.965 128.247C112.134 127.82 113.336 127.555 114.57 127.452C116.943 127.255 118.832 127.661 120.236 128.671C121.641 129.681 122.442 131.372 122.639 133.745L123.377 142.628L119.152 142.979ZM114.426 143.605C113.211 143.706 112.152 143.59 111.251 143.257C110.347 142.905 109.635 142.391 109.112 141.715C108.59 141.04 108.292 140.259 108.218 139.372C108.142 138.446 108.296 137.617 108.682 136.886C109.087 136.153 109.766 135.553 110.718 135.085C111.668 134.598 112.934 134.289 114.516 134.158L118.653 133.814L118.872 136.447L115.226 136.75C114.165 136.838 113.447 137.073 113.07 137.453C112.713 137.833 112.557 138.283 112.6 138.804C112.648 139.382 112.908 139.827 113.381 140.137C113.871 140.427 114.511 140.539 115.302 140.473C116.055 140.41 116.715 140.181 117.285 139.784C117.852 139.368 118.242 138.801 118.454 138.084L119.322 140.11C119.077 141.14 118.543 141.952 117.718 142.545C116.893 143.138 115.796 143.491 114.426 143.605Z" fill="white"/>
<path d="M96.8149 144.339L96.1936 128.73L100.516 128.558L100.692 132.968L100.032 131.716C100.452 130.595 101.164 129.734 102.166 129.132C103.168 128.511 104.404 128.171 105.874 128.113L106.041 132.29C105.846 132.279 105.672 132.276 105.517 132.282C105.362 132.269 105.197 132.266 105.023 132.273C103.785 132.322 102.794 132.72 102.048 133.466C101.322 134.192 100.988 135.3 101.047 136.79L101.341 144.159L96.8149 144.339Z" fill="white"/>
<path d="M85.131 144.71C83.7567 144.701 82.578 144.402 81.595 143.814C80.612 143.226 79.8634 142.34 79.3492 141.156C78.8352 139.952 78.5846 138.44 78.5976 136.621C78.6107 134.782 78.8925 133.274 79.4429 132.097C80.0126 130.921 80.7932 130.046 81.7845 129.472C82.7758 128.898 83.9295 128.616 85.2458 128.626C86.7168 128.636 88.0307 128.975 89.1874 129.641C90.3634 130.307 91.2858 131.243 91.9547 132.448C92.643 133.653 92.9813 135.078 92.9695 136.724C92.9579 138.349 92.5994 139.76 91.894 140.955C91.208 142.15 90.2722 143.082 89.0867 143.752C87.9206 144.401 86.602 144.721 85.131 144.71ZM75.8998 144.412L76.0535 122.869L80.5828 122.901L80.518 131.989L80.1947 136.603L80.2486 141.249L80.2259 144.443L75.8998 144.412ZM84.3736 140.989C85.1285 140.994 85.7975 140.824 86.3807 140.48C86.9832 140.136 87.4609 139.646 87.8139 139.01C88.1864 138.354 88.3758 137.581 88.3821 136.691C88.3886 135.781 88.2103 135.006 87.847 134.364C87.5032 133.723 87.0325 133.226 86.4349 132.873C85.8567 132.521 85.1902 132.342 84.4353 132.336C83.6804 132.331 83.0017 132.5 82.3992 132.844C81.7967 133.189 81.3189 133.679 80.9659 134.315C80.613 134.951 80.4332 135.724 80.4268 136.634C80.4204 137.524 80.5891 138.3 80.9328 138.961C81.2766 139.602 81.7474 140.099 82.3449 140.451C82.9425 140.804 83.6187 140.983 84.3736 140.989Z" fill="white"/>
<path d="M66.9774 143.969L67.7319 128.367L72.256 128.585L71.5016 144.188L66.9774 143.969ZM70.0991 126.301C69.2677 126.261 68.6027 125.986 68.1041 125.478C67.6054 124.969 67.3734 124.357 67.408 123.642C67.4426 122.926 67.7326 122.34 68.278 121.882C68.8234 121.423 69.5117 121.214 70.3431 121.255C71.1745 121.295 71.8399 121.56 72.3395 122.049C72.84 122.519 73.073 123.111 73.0384 123.827C73.002 124.581 72.7106 125.197 72.1642 125.674C71.6382 126.133 70.9498 126.342 70.0991 126.301Z" fill="white"/>
<path d="M49.2747 142.634L51.0127 122.384L55.6992 122.786L54.2888 139.218L64.4428 140.089L64.115 143.908L49.2747 142.634Z" fill="white"/>
</svg>
