<svg width="229" height="221" viewBox="0 0 229 221" fill="none" xmlns="http://www.w3.org/2000/svg">
<path fill-rule="evenodd" clip-rule="evenodd" d="M33.8604 125.844L6.2986 98.3664C39.6606 60.7436 99.9812 23.8774 157.778 10.9095L167.886 47.9898C143.703 55.3327 119.972 65.5339 97.1432 78.714C73.7755 92.2053 52.6381 108.076 33.8604 125.844ZM169.991 55.7132L196.098 151.486C165.781 158.598 137.385 174.415 109.647 201.399L39.5296 131.496C57.8198 114.214 78.3994 98.7733 101.143 85.6422C123.362 72.8141 146.457 62.8767 169.991 55.7132Z" fill="#B24C71"/>
<path d="M112.827 185.366L108.673 178.172C120.15 171.546 122.166 153.531 113.203 138.006C104.24 122.481 87.6083 115.232 76.1534 121.846L72 114.652C87.4335 105.741 109.134 114.349 120.395 133.854C131.656 153.358 128.26 176.455 112.827 185.366Z" fill="white"/>
<path d="M176.31 148.714C160.876 157.625 139.176 149.016 127.915 129.512C116.654 110.008 120.049 86.9106 135.483 78L139.636 85.1938C128.16 91.82 126.144 109.835 135.107 125.36C144.07 140.884 160.701 148.134 172.156 141.52L176.31 148.714Z" fill="white"/>
<path d="M147.377 113.494L96.7919 142.7L100.945 149.894L151.531 120.688L147.377 113.494Z" fill="white"/>
<path d="M123.094 51.3409C121.872 51.931 120.627 52.3582 119.357 52.6223C118.096 52.8601 117.031 52.9159 116.162 52.7897L116.106 49.1481C116.958 49.2389 117.891 49.2032 118.904 49.0412C119.927 48.8528 120.872 48.5491 121.74 48.13C122.696 47.6682 123.313 47.2281 123.591 46.8098C123.887 46.3829 123.937 45.9658 123.74 45.5586C123.578 45.2222 123.299 45.0513 122.903 45.0459C122.516 45.0142 122.045 45.0781 121.489 45.2377C120.933 45.3972 120.323 45.5823 119.661 45.7932C119.016 45.9954 118.35 46.1754 117.662 46.3331C116.965 46.4731 116.287 46.5166 115.628 46.4637C114.969 46.4107 114.357 46.2045 113.79 45.845C113.241 45.4769 112.77 44.8857 112.376 44.0712C111.94 43.1682 111.812 42.2475 111.992 41.3089C112.189 40.3618 112.69 39.454 113.493 38.5855C114.288 37.6994 115.376 36.9227 116.757 36.2556C117.731 35.7852 118.773 35.4124 119.885 35.1374C120.997 34.8623 121.988 34.7659 122.857 34.8481L122.9 38.4632C122.013 38.3896 121.181 38.453 120.405 38.6534C119.637 38.8277 118.926 39.073 118.271 39.3894C117.35 39.8342 116.737 40.2831 116.432 40.7363C116.127 41.1894 116.068 41.6108 116.256 42.0003C116.427 42.3544 116.706 42.5473 117.093 42.5789C117.497 42.602 117.981 42.5427 118.546 42.4009C119.111 42.2591 119.716 42.0871 120.361 41.8848C121.014 41.6563 121.69 41.472 122.386 41.332C123.083 41.192 123.752 41.1527 124.393 41.2143C125.043 41.2495 125.652 41.4469 126.219 41.8064C126.777 42.1482 127.253 42.7263 127.646 43.5408C128.074 44.426 128.189 45.3422 127.991 46.2893C127.785 47.2187 127.271 48.1219 126.45 48.999C125.647 49.8675 124.528 50.6481 123.094 51.3409Z" fill="white"/>
<path d="M109.5 58.2738C107.91 59.1371 106.342 59.5862 104.794 59.621C103.264 59.6464 101.88 59.3017 100.641 58.5869C99.3936 57.8549 98.3944 56.7977 97.6437 55.4153C96.8836 54.0157 96.5324 52.6066 96.5899 51.1881C96.6554 49.7429 97.0855 48.4129 97.8802 47.1982C98.6656 45.9662 99.7667 44.9655 101.184 44.196C102.549 43.4547 103.935 43.0822 105.343 43.0786C106.758 43.0482 108.081 43.4038 109.312 44.1452C110.533 44.8693 111.552 45.9831 112.368 47.4864C112.453 47.6419 112.542 47.828 112.638 48.0448C112.724 48.2442 112.805 48.435 112.882 48.6172L101.555 54.7682L100.274 52.4095L109.475 47.4128L108.3 48.9571C107.906 48.2314 107.417 47.6804 106.832 47.3043C106.247 46.9281 105.616 46.7339 104.938 46.7217C104.251 46.6922 103.562 46.8651 102.87 47.2404C102.179 47.6158 101.65 48.1044 101.284 48.7063C100.925 49.2816 100.749 49.9255 100.755 50.6379C100.752 51.3331 100.952 52.0522 101.356 52.7952L101.694 53.4173C102.107 54.1776 102.637 54.7624 103.284 55.1716C103.939 55.5541 104.654 55.7367 105.428 55.7193C106.209 55.6753 107.015 55.428 107.844 54.9776C108.587 54.5741 109.174 54.1099 109.605 53.585C110.053 53.0507 110.389 52.4322 110.611 51.7296L114.029 52.8941C113.784 53.967 113.286 54.965 112.534 55.8879C111.773 56.7935 110.761 57.5888 109.5 58.2738Z" fill="white"/>
<path d="M94.9145 66.6039C93.4545 67.4955 91.9746 67.996 90.4748 68.1055C88.9647 68.1983 87.5597 67.9159 86.2596 67.2583C84.9762 66.5905 83.9247 65.5853 83.1048 64.2428C82.2747 62.8835 81.8608 61.489 81.8631 60.0591C81.872 58.6022 82.2676 57.2316 83.0501 55.9474C83.8223 54.6464 84.9384 53.5501 86.3984 52.6586C87.8248 51.7875 89.2511 51.3312 90.6772 51.2897C92.0931 51.2314 93.391 51.6023 94.5708 52.4025L92.5242 55.8987C91.7823 55.4762 91.0507 55.2779 90.3292 55.3038C89.6245 55.3194 88.9617 55.5168 88.3408 55.896C87.6696 56.3059 87.1577 56.8258 86.8051 57.4558C86.4526 58.0858 86.286 58.7751 86.3053 59.5236C86.3414 60.2618 86.6003 61.0253 87.082 61.8141C87.5637 62.6028 88.1246 63.1818 88.7649 63.5511C89.4219 63.9102 90.1111 64.0768 90.8326 64.0509C91.5541 64.025 92.2504 63.8071 92.9217 63.3972C93.5426 63.018 94.0261 62.527 94.3721 61.924C94.7246 61.294 94.8772 60.5442 94.83 59.6745L98.8904 59.4758C99.053 60.874 98.7902 62.198 98.1019 63.4478C97.4034 64.6808 96.3409 65.7328 94.9145 66.6039Z" fill="white"/>
<path d="M80.8343 75.6022C79.7099 76.3614 78.5383 76.9628 77.3193 77.4064C76.1056 77.8226 75.0597 78.0306 74.1817 78.0303L73.6041 74.4343C74.4601 74.402 75.378 74.2329 76.3579 73.9272C77.343 73.5941 78.2348 73.158 79.0333 72.6188C79.9133 72.0246 80.461 71.5005 80.6764 71.0466C80.9082 70.5816 80.8975 70.1618 80.6444 69.787C80.4353 69.4773 80.1346 69.3482 79.7423 69.3996C79.3552 69.4238 78.8979 69.5546 78.3703 69.7923C77.8427 70.0299 77.2662 70.3006 76.6408 70.6042C76.0318 70.8969 75.398 71.1706 74.7397 71.4254C74.0703 71.6638 73.4058 71.8041 72.7461 71.8462C72.0865 71.8883 71.4504 71.7721 70.838 71.4976C70.2419 71.2121 69.6907 70.6945 69.1845 69.9449C68.6233 69.1139 68.3644 68.221 68.4078 67.2663C68.4675 66.3007 68.8326 65.3305 69.5031 64.3558C70.1626 63.3648 71.1278 62.4401 72.3989 61.5818C73.2952 60.9766 74.2737 60.4581 75.3346 60.0264C76.3956 59.5947 77.3622 59.3572 78.2345 59.3139L78.7956 62.8854C77.907 62.9398 77.0927 63.1219 76.3529 63.4316C75.6183 63.7141 74.9495 64.059 74.3466 64.4661C73.4992 65.0383 72.957 65.5705 72.72 66.0628C72.4829 66.555 72.4855 66.9804 72.7276 67.3389C72.9476 67.6648 73.2512 67.8157 73.6383 67.7916C74.0416 67.7565 74.5126 67.6282 75.0512 67.4069C75.5898 67.1856 76.1636 66.9286 76.7727 66.6359C77.3871 66.3159 78.029 66.0367 78.6983 65.7983C79.3677 65.5598 80.0241 65.425 80.6674 65.3939C81.3161 65.3355 81.9466 65.4436 82.5591 65.7181C83.1605 65.9763 83.7143 66.4802 84.2205 67.2298C84.7707 68.0446 85.0159 68.9348 84.9562 69.9004C84.8855 70.8498 84.5067 71.8173 83.82 72.8031C83.1495 73.7778 82.1543 74.7108 80.8343 75.6022Z" fill="white"/>
<path d="M69.8396 83.0365L60.5314 70.1852L64.2578 67.4862L73.5659 80.3374L69.8396 83.0365ZM61.097 67.0442C60.4122 67.5401 59.7107 67.7448 58.9923 67.6581C58.274 67.5714 57.7015 67.2334 57.2747 66.6442C56.8479 66.055 56.7054 65.4056 56.847 64.6961C56.9886 63.9865 57.4018 63.3838 58.0865 62.8878C58.7713 62.3918 59.4671 62.1792 60.1739 62.25C60.8691 62.3048 61.4301 62.6269 61.8569 63.2161C62.3067 63.8371 62.4666 64.5104 62.3365 65.2359C62.2109 65.9339 61.7977 66.5366 61.097 67.0442Z" fill="white"/>
<path d="M53.359 95.7892L40.5418 79.6033L47.548 74.0552C48.997 72.9078 50.4348 72.158 51.8615 71.8058C53.2759 71.4381 54.6162 71.4678 55.8824 71.8948C57.1485 72.3219 58.2638 73.1443 59.2281 74.3621C60.1803 75.5644 60.7191 76.8308 60.8445 78.1611C60.9699 79.4914 60.6977 80.8106 60.0279 82.1185C59.3459 83.411 58.2804 84.631 56.8313 85.7785L51.9062 89.6786L52.2344 86.6723L57.1049 92.8229L53.359 95.7892ZM52.5639 87.0885L49.4892 86.6264L54.2063 82.8911C55.3624 81.9755 56.0303 81.0453 56.2101 80.1004C56.3898 79.1554 56.1318 78.2436 55.436 77.365C54.728 76.4709 53.8935 76.003 52.9325 75.9614C51.9715 75.9198 50.913 76.3567 49.7568 77.2722L45.0398 81.0075L45.2947 77.9087L52.5639 87.0885Z" fill="white"/>
</svg>
