<svg width="74" height="73" viewBox="0 0 74 73" fill="none" xmlns="http://www.w3.org/2000/svg">
<path d="M3.75 15.7834V45.9934C3.75 49.2016 5.02447 52.2784 7.29303 54.547C9.5616 56.8156 12.6384 58.09 15.8467 58.09H21.895V67.1467L40.1667 58.09H58.3117C61.5199 58.09 64.5967 56.8156 66.8653 54.547C69.1339 52.2784 70.4083 49.2016 70.4083 45.9934V15.7834C70.4083 12.5751 69.1339 9.4983 66.8653 7.22974C64.5967 4.96117 61.5199 3.68671 58.3117 3.68671H15.8467C12.6384 3.68671 9.5616 4.96117 7.29303 7.22974C5.02447 9.4983 3.75 12.5751 3.75 15.7834Z" stroke="white" stroke-width="6.33333" stroke-miterlimit="10"/>
<path d="M37.0001 37V33.39C36.9989 32.5956 37.1549 31.8089 37.4593 31.0751C37.7636 30.3414 38.2103 29.6752 38.7734 29.115L41.2751 26.6133C42.4067 25.4778 43.044 23.9414 43.0484 22.3383V21.8C43.0401 20.2013 42.3992 18.671 41.2658 17.5436C40.1324 16.4162 38.5988 15.7833 37.0001 15.7833C35.4015 15.7833 33.8678 16.4162 32.7345 17.5436C31.6011 18.671 30.9602 20.2013 30.9518 21.8" stroke="white" stroke-width="6.33333" stroke-miterlimit="10"/>
<path d="M33.9916 42.985H40.0083" stroke="white" stroke-width="6.33333" stroke-miterlimit="10"/>
</svg>
