<svg width="247" height="229" viewBox="0 0 247 229" fill="none" xmlns="http://www.w3.org/2000/svg">
<path fill-rule="evenodd" clip-rule="evenodd" d="M151.844 194.369L124.366 221.931C86.7436 188.569 49.8774 128.249 36.9095 70.4514L73.9898 60.3438C81.3327 84.5271 91.5339 108.258 104.714 131.087C118.205 154.454 134.076 175.592 151.844 194.369ZM81.7132 58.2385L177.486 32.1321C184.598 62.4491 200.415 90.8449 227.399 118.583L157.496 188.7C140.214 170.41 124.773 149.83 111.642 127.087C98.8141 104.868 88.8767 81.7733 81.7132 58.2385Z" fill="#37B1F5"/>
<path d="M196.188 95.2122L106.74 98.9387L107.113 107.915L196.56 104.189L196.188 95.2122Z" fill="white"/>
<path d="M175.518 115.676L190.026 99.8901L174.241 85.3873L180.33 78.7819L202.72 99.3716L182.123 121.763L175.518 115.676Z" fill="white"/>
<path d="M141.124 81.7899L132.147 82.1639L133.819 122.489L142.796 122.115L141.124 81.7899Z" fill="white"/>
<path d="M123.025 208.45C122.131 207.458 121.385 206.398 120.785 205.271C120.213 204.144 119.867 203.153 119.747 202.297L123.174 201.242C123.323 202.072 123.613 202.944 124.045 203.857C124.505 204.772 125.052 205.581 125.687 206.286C126.387 207.062 126.973 207.525 127.445 207.672C127.93 207.835 128.338 207.767 128.668 207.469C128.942 207.222 129.026 206.912 128.922 206.536C128.846 206.162 128.656 205.734 128.352 205.252C128.048 204.771 127.705 204.246 127.323 203.678C126.955 203.124 126.601 202.544 126.263 201.937C125.938 201.317 125.711 200.688 125.579 200.051C125.448 199.414 125.474 198.778 125.658 198.143C125.855 197.523 126.284 196.915 126.945 196.319C127.678 195.658 128.513 195.283 129.45 195.195C130.399 195.121 131.395 195.344 132.437 195.864C133.494 196.371 134.527 197.185 135.538 198.307C136.251 199.098 136.89 199.981 137.456 200.956C138.022 201.931 138.386 202.841 138.548 203.685L135.143 204.721C134.968 203.862 134.679 203.094 134.276 202.415C133.9 201.737 133.472 201.133 132.993 200.601C132.319 199.853 131.726 199.397 131.214 199.234C130.701 199.07 130.287 199.131 129.971 199.416C129.683 199.675 129.578 199.992 129.654 200.366C129.744 200.754 129.933 201.196 130.223 201.69C130.512 202.185 130.841 202.709 131.21 203.263C131.606 203.818 131.966 204.405 132.29 205.025C132.614 205.645 132.836 206.267 132.954 206.89C133.1 207.514 133.081 208.143 132.897 208.778C132.728 209.4 132.312 210.008 131.651 210.605C130.932 211.253 130.098 211.614 129.148 211.688C128.213 211.749 127.218 211.512 126.163 210.977C125.121 210.457 124.075 209.615 123.025 208.45Z" fill="white"/>
<path d="M110.588 193.914C109.77 192.908 109.232 191.848 108.975 190.735C108.73 189.637 108.828 188.546 109.269 187.463C109.726 186.368 110.577 185.313 111.823 184.299L118.67 178.728L121.529 182.241L115.2 187.391C114.194 188.21 113.622 189.024 113.484 189.836C113.373 190.65 113.635 191.447 114.27 192.228C114.71 192.769 115.213 193.157 115.781 193.395C116.363 193.619 116.992 193.657 117.668 193.506C118.359 193.343 119.072 192.962 119.808 192.363L125.798 187.489L128.657 191.002L116.541 200.861L113.829 197.528L117.162 194.816L116.688 196.212C115.518 196.491 114.391 196.41 113.308 195.968C112.252 195.53 111.346 194.845 110.588 193.914Z" fill="white"/>
<path d="M101.361 181.626L113.87 172.27L116.583 175.898L104.074 185.253L101.361 181.626ZM116.971 172.78C116.472 172.113 116.26 171.426 116.335 170.717C116.409 170.009 116.733 169.44 117.307 169.011C117.88 168.582 118.517 168.432 119.218 168.561C119.918 168.69 120.518 169.087 121.016 169.754C121.515 170.42 121.735 171.102 121.676 171.799C121.632 172.484 121.324 173.041 120.75 173.47C120.145 173.922 119.485 174.09 118.769 173.973C118.08 173.859 117.481 173.462 116.971 172.78Z" fill="white"/>
<path d="M94.2725 171.722L107.049 162.735L109.538 166.274L105.928 168.813L106.622 167.579C107.792 167.324 108.902 167.455 109.951 167.971C111.016 168.476 111.972 169.33 112.818 170.534L109.399 172.939C109.303 172.77 109.211 172.621 109.122 172.495C109.048 172.357 108.962 172.217 108.861 172.074C108.149 171.061 107.277 170.444 106.246 170.223C105.241 170.006 104.13 170.327 102.91 171.184L96.8784 175.427L94.2725 171.722Z" fill="white"/>
<path d="M89.6242 164.791L92.191 163.146L92.5966 162.541L97.1924 159.596C98.0073 159.074 98.481 158.414 98.6135 157.616C98.7565 156.835 98.4991 155.931 97.8411 154.904C97.392 154.203 96.834 153.584 96.1672 153.046C95.5271 152.513 94.8682 152.131 94.1905 151.898L95.9778 148.822C96.9426 149.215 97.8872 149.828 98.8118 150.661C99.7364 151.494 100.533 152.432 101.201 153.475C102.486 155.479 103.011 157.339 102.776 159.053C102.541 160.767 101.421 162.266 99.4163 163.551L91.9115 168.36L89.6242 164.791ZM86.8594 160.907C86.2014 159.881 85.8086 158.891 85.6808 157.938C85.5694 156.975 85.6898 156.105 86.0421 155.327C86.3945 154.549 86.9455 153.92 87.6952 153.44C88.4774 152.939 89.282 152.687 90.1089 152.686C90.9463 152.701 91.7943 153.02 92.6529 153.642C93.5277 154.254 94.3934 155.228 95.2498 156.565L97.4901 160.06L95.2655 161.486L93.2916 158.406C92.7172 157.51 92.1736 156.984 91.6609 156.83C91.1587 156.692 90.6876 156.764 90.2475 157.046C89.7586 157.359 89.4876 157.798 89.4345 158.36C89.4081 158.929 89.609 159.547 90.0372 160.216C90.4445 160.851 90.9567 161.328 91.5739 161.645C92.2073 161.952 92.8904 162.031 93.6233 161.883L92.2392 163.598C91.2142 163.864 90.2467 163.771 89.3367 163.32C88.4267 162.869 87.6009 162.064 86.8594 160.907Z" fill="white"/>
<path d="M81.0188 151.397C80.0945 149.807 79.7762 148.335 80.0638 146.982C80.3682 145.618 81.3236 144.469 82.9301 143.535L94.7778 136.647L97.0543 140.563L85.2568 147.422C84.6878 147.753 84.3319 148.161 84.1891 148.647C84.063 149.123 84.1508 149.621 84.4524 150.14C84.8123 150.759 85.2861 151.189 85.8737 151.429L83.7255 154.089C83.2076 153.852 82.7079 153.494 82.2265 153.012C81.7716 152.538 81.369 151.999 81.0188 151.397ZM87.2662 138.227L90.2783 136.475L95.7216 145.838L92.7094 147.589L87.2662 138.227Z" fill="white"/>
<path d="M74.8432 140.527C73.9756 138.905 73.7095 137.423 74.0447 136.08C74.397 134.728 75.3923 133.614 77.0308 132.737L89.1143 126.272L91.2511 130.265L79.2189 136.704C78.6386 137.014 78.2685 137.41 78.1086 137.89C77.9658 138.362 78.0359 138.862 78.319 139.391C78.6569 140.023 79.1152 140.469 79.694 140.73L77.4532 143.312C76.9439 143.058 76.4572 142.682 75.9931 142.184C75.5552 141.693 75.1719 141.141 74.8432 140.527ZM81.5516 127.585L84.6236 125.941L89.733 135.49L86.6609 137.134L81.5516 127.585Z" fill="white"/>
<path d="M68.2303 127.245L82.2137 120.283L84.2325 124.338L70.249 131.3L68.2303 127.245ZM85.1725 121.34C84.8015 120.595 84.7161 119.881 84.9164 119.197C85.1166 118.513 85.5373 118.012 86.1785 117.693C86.8196 117.374 87.4732 117.34 88.1393 117.592C88.8055 117.844 89.324 118.343 89.695 119.088C90.066 119.833 90.16 120.543 89.977 121.218C89.8114 121.884 89.4081 122.377 88.767 122.696C88.0912 123.033 87.4116 123.079 86.7281 122.836C86.0706 122.601 85.5521 122.102 85.1725 121.34Z" fill="white"/>
<path d="M57.2647 117.661C56.6642 116.318 56.2513 114.944 56.0261 113.54C55.7911 112.16 55.8148 110.909 56.0972 109.787L59.8007 110.103C59.5746 110.925 59.5256 111.858 59.6537 112.904C59.7721 113.974 60.0327 114.96 60.4357 115.862C61.0915 117.328 61.8925 118.242 62.8386 118.604C63.7927 118.983 64.9147 118.884 66.2046 118.307L68.3516 117.347L72.0484 116.012L75.6295 114.348L78.7042 112.973L80.4583 116.896L68.5837 122.205C65.9331 123.39 63.6723 123.574 61.8014 122.757C59.9305 121.94 58.4183 120.241 57.2647 117.661ZM63.0236 114.323C62.431 112.998 62.1764 111.669 62.2599 110.339C62.369 109.018 62.7898 107.801 63.5223 106.689C64.2804 105.587 65.3486 104.728 66.7269 104.111C68.1229 103.487 69.4756 103.264 70.7849 103.442C72.1198 103.629 73.307 104.127 74.3466 104.934C75.394 105.759 76.214 106.835 76.8066 108.16C77.3439 109.361 77.5706 110.532 77.4867 111.672C77.4204 112.805 76.9894 113.856 76.1937 114.827C75.4156 115.79 74.2314 116.627 72.641 117.338C71.0683 118.041 69.655 118.365 68.401 118.311C67.1646 118.249 66.0936 117.869 65.188 117.172C64.2823 116.474 63.5609 115.524 63.0236 114.323ZM66.7837 113.627C67.1077 114.352 67.5374 114.934 68.073 115.373C68.6262 115.804 69.239 116.06 69.9114 116.141C70.5837 116.222 71.2645 116.108 71.9536 115.8C72.6604 115.484 73.199 115.053 73.5692 114.505C73.9571 113.95 74.166 113.327 74.1959 112.635C74.2434 111.935 74.1052 111.223 73.7813 110.499C73.4573 109.774 73.0187 109.196 72.4655 108.765C71.9299 108.326 71.322 108.057 70.6418 107.958C69.9871 107.87 69.3064 107.983 68.5995 108.299C67.9104 108.607 67.3719 109.039 66.984 109.594C66.604 110.167 66.3902 110.803 66.3426 111.503C66.3127 112.195 66.4598 112.903 66.7837 113.627Z" fill="white"/>
<path d="M56.4031 100.483L59.2509 99.3952L59.7711 98.8855L64.87 96.937C65.774 96.5915 66.3721 96.0417 66.6642 95.2877C66.9632 94.5518 66.895 93.6143 66.4597 92.4752C66.1625 91.6977 65.7423 90.9776 65.1989 90.3149C64.6806 89.6634 64.1133 89.1549 63.497 88.7895L65.8729 86.1409C66.7374 86.7223 67.5376 87.5148 68.2734 88.5183C69.0092 89.5219 69.5982 90.6023 70.0404 91.7595C70.8904 93.9835 71.0259 95.9106 70.4471 97.5409C69.8682 99.1712 68.4668 100.411 66.2428 101.261L57.9164 104.443L56.4031 100.483ZM54.4863 96.1184C54.051 94.9793 53.8677 93.9303 53.9365 92.9716C54.0233 92.0059 54.3183 91.1783 54.8215 90.4886C55.3247 89.799 55.9921 89.2953 56.8238 88.9774C57.6917 88.6458 58.5306 88.5635 59.3405 88.7306C60.1572 88.9158 60.9226 89.4003 61.6367 90.1843C62.3688 90.9613 63.0181 92.0912 63.5847 93.5738L65.0669 97.4523L62.5988 98.3955L61.2929 94.9781C60.9128 93.9836 60.4875 93.3587 60.0169 93.1034C59.5533 92.8662 59.0773 92.8408 58.5892 93.0274C58.0467 93.2347 57.6922 93.6085 57.5257 94.1487C57.3842 94.7001 57.455 95.3465 57.7383 96.0878C58.0078 96.793 58.4124 97.3637 58.9521 97.7998C59.5098 98.229 60.1625 98.4458 60.9102 98.4502L59.2062 99.8474C58.1485 99.8993 57.2201 99.6118 56.4209 98.9847C55.6218 98.3576 54.9769 97.4022 54.4863 96.1184Z" fill="white"/>
<path d="M48.8417 80.3665C48.3416 78.8193 48.065 77.2712 48.0118 75.722C47.977 74.1668 48.1512 72.8493 48.5344 71.7693L52.3962 72.1993C52.0747 73.2187 51.9021 74.3526 51.8785 75.6011C51.8792 76.8621 52.0671 78.0728 52.4422 79.2332C52.728 80.1173 53.0401 80.7996 53.3785 81.2801C53.7413 81.7731 54.1209 82.098 54.5174 82.2546C54.9138 82.4113 55.3146 82.4241 55.7198 82.2931C56.2356 82.1264 56.5753 81.7928 56.739 81.2924C56.9211 80.786 56.9971 80.1715 56.967 79.4489C56.9553 78.7203 56.9013 77.9241 56.8051 77.0601C56.7333 76.2086 56.6954 75.3359 56.6913 74.4422C56.6931 73.5668 56.7895 72.7321 56.9804 71.9381C57.1712 71.1441 57.5297 70.4281 58.0559 69.7901C58.588 69.1706 59.3697 68.6941 60.4011 68.3608C61.5062 68.0035 62.6053 67.9738 63.6983 68.2714C64.8157 68.5816 65.8349 69.2489 66.756 70.2735C67.7015 71.3105 68.4689 72.7407 69.0583 74.5641C69.4513 75.7797 69.6909 77.0245 69.7772 78.2985C69.882 79.5666 69.7947 80.7442 69.5155 81.8312L65.6708 81.5483C65.8948 80.4791 65.9806 79.4545 65.9283 78.4746C65.8945 77.4888 65.7376 76.563 65.4578 75.6974C65.178 74.8317 64.8475 74.1554 64.4663 73.6683C64.0851 73.1812 63.69 72.8716 63.2811 72.7393C62.8906 72.6011 62.4835 72.6004 62.0599 72.7373C61.5626 72.8981 61.2229 73.2317 61.0408 73.7381C60.8771 74.2385 60.8103 74.8501 60.8404 75.5726C60.8706 76.2952 60.9215 77.0823 60.9933 77.9338C61.0711 78.8038 61.1183 79.6734 61.1348 80.5428C61.1574 81.4306 61.0732 82.2715 60.8823 83.0656C60.6914 83.8596 60.3299 84.5664 59.7978 85.1859C59.2717 85.8239 58.5021 86.3065 57.4891 86.634C56.4025 86.9852 55.3096 87.0028 54.2107 86.6867C53.1117 86.3707 52.0895 85.6941 51.144 84.6571C50.2045 83.6385 49.4371 82.2083 48.8417 80.3665Z" fill="white"/>
</svg>
