<svg width="229" height="229" viewBox="0 0 229 229" fill="none" xmlns="http://www.w3.org/2000/svg">
<path fill-rule="evenodd" clip-rule="evenodd" d="M167.794 171.874L157.778 209.482C108.515 199.401 46.4277 165.595 6.2986 122.025L33.3573 94.7318C51.8081 112.004 72.508 127.455 95.3366 140.635C118.704 154.126 143.018 164.496 167.794 171.874ZM38.9933 89.0469L108.882 18.5514C130.199 41.2511 158.095 57.9341 195.333 68.4637L169.854 164.139C145.742 156.94 122.08 146.838 99.3366 133.707C77.1177 120.878 56.9644 105.847 38.9933 89.0469Z" fill="#019C96"/>
<path d="M98.3013 104.293L92.0345 100.675L116.927 57.5592C120.062 52.1292 116.316 44.4537 116.281 44.3826L122.753 41.1337C122.972 41.5903 128.287 52.356 123.194 61.1773L98.3013 104.293Z" fill="white"/>
<path d="M113.463 113.047L107.197 109.429L132.09 66.313C134.114 62.8074 134.093 58.8836 133.78 56.391C130.193 56.7083 125.078 57.8702 123.175 61.1663L98.2822 104.282L92.0155 100.664L116.908 57.5482C122.122 48.5173 136.291 49.051 136.88 49.0863L139.376 49.2063L140.159 51.5891C140.282 51.9907 143.273 61.4147 138.345 69.9502L113.452 113.066L113.463 113.047Z" fill="white"/>
<path d="M133.762 135.867C128.961 133.096 125.823 129.734 124.433 125.807C122.795 121.254 123.519 116.261 126.566 110.984L147.29 75.0889C149.314 71.5833 149.293 67.6594 148.98 65.1668C145.394 65.4841 140.278 66.6461 138.375 69.9421L113.482 113.058L107.216 109.44L132.109 66.3241C137.323 57.2932 151.491 57.8269 152.08 57.8622L154.576 57.9821L155.359 60.3649C155.483 60.7666 158.473 70.1906 153.546 78.7261L132.822 114.621C130.886 117.974 130.354 120.919 131.24 123.387C132.439 126.721 136.436 129.74 142.807 132.122L140.271 138.889C137.853 137.975 135.666 136.967 133.762 135.867Z" fill="white"/>
<path d="M129.172 142.541L127.316 135.55L137.112 132.924L134.488 123.128L141.459 121.259L145.969 138.038L129.172 142.541Z" fill="white"/>
<path d="M124.903 188.783C123.361 188.154 122.122 187.272 121.184 186.137C120.264 185.01 119.682 183.748 119.436 182.351C119.215 180.944 119.397 179.524 119.982 178.09C120.574 176.638 121.438 175.496 122.572 174.662C123.732 173.818 125.031 173.324 126.469 173.179C127.934 173.024 129.436 173.26 130.978 173.889C132.501 174.51 133.732 175.388 134.669 176.523C135.614 177.641 136.201 178.894 136.428 180.283C136.656 181.672 136.47 183.101 135.871 184.571C135.286 186.005 134.423 187.147 133.281 187.999C132.147 188.832 130.848 189.326 129.384 189.482C127.92 189.637 126.426 189.404 124.903 188.783ZM126.306 185.342C127.005 185.627 127.698 185.721 128.385 185.625C129.073 185.529 129.698 185.251 130.262 184.792C130.833 184.314 131.287 183.663 131.623 182.838C131.967 181.996 132.098 181.213 132.017 180.49C131.935 179.767 131.683 179.131 131.259 178.582C130.834 178.032 130.273 177.615 129.574 177.33C128.875 177.045 128.182 176.95 127.495 177.046C126.807 177.142 126.173 177.417 125.591 177.869C125.027 178.329 124.574 178.98 124.23 179.823C123.894 180.647 123.763 181.43 123.837 182.171C123.936 182.901 124.198 183.541 124.622 184.09C125.046 184.639 125.607 185.057 126.306 185.342Z" fill="white"/>
<path d="M110.03 182.095L116.489 167.872L120.613 169.745L114.154 183.968L110.03 182.095ZM119.451 166.825C118.693 166.481 118.177 165.981 117.901 165.324C117.625 164.668 117.635 164.013 117.931 163.361C118.227 162.709 118.713 162.271 119.389 162.046C120.065 161.821 120.782 161.881 121.54 162.225C122.298 162.57 122.819 163.061 123.102 163.7C123.394 164.322 123.392 164.958 123.096 165.611C122.784 166.298 122.286 166.763 121.602 167.005C120.944 167.237 120.227 167.178 119.451 166.825Z" fill="white"/>
<path d="M99.5376 177.319C98.3626 176.725 97.4652 175.947 96.8456 174.984C96.2259 174.021 95.9316 172.886 95.9625 171.579C96.0194 170.263 96.4578 168.793 97.2776 167.169C98.1062 165.527 99.0198 164.297 100.018 163.478C101.017 162.66 102.088 162.214 103.231 162.14C104.374 162.067 105.559 162.339 106.785 162.959C108.099 163.621 109.121 164.517 109.853 165.645C110.61 166.765 111.021 168.013 111.085 169.389C111.166 170.775 110.841 172.193 110.108 173.645C109.367 175.114 108.415 176.227 107.252 176.984C106.106 177.75 104.858 178.161 103.508 178.216C102.174 178.281 100.851 177.981 99.5376 177.319ZM88.8616 177.979L98.4381 159.006L102.3 160.955L100.861 163.806L98.6901 167.914L96.8692 172.166L92.9051 180.02L88.8616 177.979ZM100.512 173.647C101.186 173.988 101.861 174.133 102.536 174.084C103.229 174.043 103.875 173.816 104.474 173.403C105.099 172.981 105.612 172.373 106.013 171.578C106.423 170.766 106.607 169.991 106.567 169.255C106.544 168.528 106.343 167.874 105.964 167.292C105.603 166.72 105.085 166.263 104.411 165.923C103.737 165.583 103.054 165.433 102.361 165.474C101.668 165.515 101.023 165.742 100.424 166.155C99.8249 166.568 99.3205 167.181 98.9106 167.993C98.5094 168.788 98.316 169.558 98.3305 170.302C98.3538 171.029 98.5547 171.684 98.9334 172.265C99.3121 172.847 99.8384 173.307 100.512 173.647Z" fill="white"/>
<path d="M80.1423 166.63L87.8271 153.03L91.5936 155.159L89.4224 159.001L89.5201 157.589C90.4673 156.857 91.5256 156.499 92.6949 156.515C93.8738 156.514 95.1036 156.875 96.3844 157.599L94.3275 161.239C94.1685 161.127 94.0216 161.033 93.8867 160.957C93.7614 160.864 93.623 160.774 93.4713 160.689C92.3928 160.079 91.3403 159.896 90.3138 160.138C89.3138 160.374 88.4471 161.14 87.7139 162.438L84.0858 168.858L80.1423 166.63Z" fill="white"/>
<path d="M69.7899 160.657C68.3786 159.774 67.3081 158.693 66.5782 157.415C65.8647 156.146 65.5062 154.803 65.5027 153.386C65.5259 151.962 65.9482 150.593 66.7695 149.28C67.601 147.951 68.6469 146.973 69.9069 146.346C71.1937 145.712 72.5583 145.447 74.0006 145.55C75.4697 145.647 76.9098 146.137 78.3211 147.02C79.7159 147.893 80.7783 148.969 81.5081 150.247C82.2483 151.509 82.6119 152.844 82.599 154.252C82.586 155.659 82.1587 157.036 81.3168 158.381C80.4955 159.694 79.4497 160.672 78.1794 161.316C76.9193 161.943 75.5547 162.209 74.0857 162.111C72.6166 162.014 71.1847 161.53 69.7899 160.657ZM71.761 157.506C72.401 157.907 73.0677 158.118 73.7612 158.141C74.4547 158.164 75.1185 157.997 75.7527 157.64C76.3971 157.267 76.9554 156.703 77.4277 155.948C77.9102 155.177 78.1732 154.428 78.2166 153.702C78.26 152.976 78.1197 152.306 77.7958 151.692C77.4719 151.078 76.9899 150.571 76.35 150.171C75.71 149.771 75.0432 149.559 74.3497 149.536C73.6562 149.513 72.9842 149.675 72.3336 150.022C71.6995 150.378 71.1411 150.942 70.6586 151.714C70.1864 152.468 69.9234 153.217 69.8697 153.96C69.8427 154.696 69.9912 155.372 70.3151 155.985C70.639 156.599 71.121 157.106 71.761 157.506Z" fill="white"/>
<path d="M55.0701 150.97C53.6906 150.004 52.656 148.866 51.9662 147.557C51.2876 146.231 50.9888 144.852 51.0697 143.42C51.1665 141.999 51.659 140.655 52.5471 139.386C53.4463 138.102 54.5413 137.179 55.8321 136.617C57.1499 136.051 58.5422 135.868 60.009 136.068C61.487 136.252 62.9157 136.827 64.2952 137.793C65.6431 138.737 66.6167 139.843 67.216 141.114C67.8265 142.368 68.0032 143.685 67.7462 145.065L63.7858 144.596C63.8747 143.76 63.7653 143.022 63.4577 142.381C63.166 141.752 62.7267 141.232 62.14 140.821C61.5057 140.377 60.835 140.12 60.1277 140.05C59.4205 139.98 58.7331 140.102 58.0654 140.414C57.4137 140.737 56.8269 141.272 56.3052 142.017C55.7834 142.762 55.4821 143.496 55.4012 144.22C55.3361 144.954 55.4574 145.641 55.765 146.282C56.0726 146.922 56.5435 147.465 57.1778 147.909C57.7645 148.32 58.398 148.562 59.0783 148.637C59.7855 148.707 60.5221 148.549 61.288 148.164L63.0671 151.748C61.8698 152.446 60.5718 152.731 59.1732 152.602C57.7857 152.458 56.418 151.914 55.0701 150.97Z" fill="white"/>
<path d="M39.0678 139.344C37.7853 138.344 36.6872 137.218 35.7733 135.966C34.8714 134.699 34.2758 133.511 33.9865 132.402L37.4235 130.59C37.7298 131.614 38.2237 132.649 38.9052 133.695C39.6138 134.738 40.4491 135.635 41.4109 136.384C42.1438 136.955 42.7851 137.345 43.335 137.552C43.912 137.757 44.4085 137.812 44.8245 137.719C45.2406 137.626 45.5795 137.412 45.8412 137.076C46.1744 136.649 46.2682 136.182 46.1227 135.676C45.9891 135.154 45.7069 134.603 45.2763 134.022C44.8575 133.426 44.3658 132.797 43.8011 132.136C43.2636 131.472 42.7422 130.771 42.237 130.034C41.7471 129.309 41.3582 128.564 41.0703 127.8C40.7824 127.035 40.6771 126.242 40.7543 125.418C40.8468 124.607 41.2261 123.774 41.8925 122.919C42.6064 122.003 43.4991 121.361 44.5707 120.994C45.6695 120.623 46.8876 120.603 48.225 120.933C49.5897 121.261 51.0277 122.013 52.5392 123.191C53.5469 123.977 54.4441 124.872 55.2309 125.878C56.0295 126.868 56.6185 127.892 56.9978 128.948L53.6574 130.873C53.2424 129.862 52.7382 128.966 52.1448 128.185C51.5633 127.388 50.9137 126.71 50.1961 126.151C49.4785 125.591 48.8253 125.217 48.2364 125.028C47.6475 124.839 47.1467 124.805 46.734 124.925C46.3333 125.03 45.9961 125.258 45.7224 125.609C45.4011 126.021 45.3073 126.488 45.4409 127.009C45.5864 127.515 45.8745 128.059 46.3052 128.64C46.7358 129.221 47.2199 129.844 47.7574 130.508C48.3102 131.184 48.8376 131.877 49.3394 132.587C49.8565 133.309 50.259 134.053 50.5468 134.817C50.8347 135.581 50.9324 136.369 50.84 137.18C50.7628 138.004 50.397 138.835 49.7425 139.675C49.0405 140.576 48.1461 141.204 47.0592 141.559C45.9724 141.915 44.7466 141.929 43.382 141.601C42.0326 141.286 40.5946 140.533 39.0678 139.344Z" fill="white"/>
</svg>
