<svg width="229" height="221" viewBox="0 0 229 221" fill="none" xmlns="http://www.w3.org/2000/svg">
<path fill-rule="evenodd" clip-rule="evenodd" d="M60.4361 48.5174L70.4514 10.9095C119.715 20.9905 181.802 54.7965 221.931 98.3664L194.872 125.66C176.422 108.388 155.722 92.9371 132.893 79.757C109.526 66.2657 85.2122 55.8956 60.4361 48.5174ZM189.237 131.345L119.348 201.84C98.0307 179.141 70.1349 162.458 32.8971 151.928L58.3761 56.2531C82.488 63.4517 106.149 73.5541 128.893 86.6852C151.112 99.5133 171.265 114.545 189.237 131.345Z" fill="#F36C2C"/>
<path d="M83.3884 166.076C69.5003 158.057 64.7265 140.232 72.7467 126.341C80.7669 112.45 98.5905 107.672 112.479 115.69C126.367 123.708 131.14 141.533 123.12 155.424C115.1 169.316 97.2764 174.094 83.3884 166.076ZM108.4 122.753C98.4071 116.984 85.5581 120.41 79.7746 130.427C73.9912 140.444 77.4269 153.273 87.4417 159.055C97.4565 164.837 110.284 161.398 116.068 151.381C121.851 141.364 118.415 128.535 108.4 122.753Z" fill="white"/>
<path d="M108.4 122.753C100.033 117.923 95.7039 110.2 95.5124 99.7586C95.3721 92.8853 92.3034 88.3168 84.8993 84.042L88.965 77C95.1493 80.5705 103.4 86.7894 103.626 99.5916C103.779 107.185 106.581 112.314 112.466 115.711C118.351 119.109 124.194 118.972 130.846 115.307C142.056 109.136 151.579 113.15 157.742 116.708L153.676 123.75C146.272 119.476 140.793 119.081 134.758 122.417C125.632 127.451 116.746 127.572 108.4 122.753Z" fill="white"/>
<path d="M173.016 92.1996C171.924 91.3931 170.966 90.4894 170.141 89.4884C169.344 88.4832 168.799 87.5668 168.506 86.739L171.703 84.9942C172.019 85.7903 172.485 86.5992 173.1 87.4208C173.743 88.2382 174.452 88.9333 175.227 89.506C176.08 90.1372 176.757 90.4785 177.257 90.5301C177.773 90.5934 178.165 90.4432 178.434 90.0795C178.656 89.7791 178.677 89.4525 178.498 89.0998C178.346 88.743 178.07 88.3556 177.67 87.9375C177.27 87.5195 176.822 87.0665 176.327 86.5783C175.848 86.1019 175.378 85.5959 174.918 85.0603C174.47 84.5089 174.116 83.9293 173.856 83.3216C173.596 82.7138 173.494 82.0755 173.548 81.4065C173.618 80.7493 173.922 80.057 174.46 79.3296C175.056 78.5232 175.811 77.9811 176.725 77.7034C177.656 77.4373 178.692 77.4576 179.835 77.7643C180.989 78.0551 182.183 78.6564 183.416 79.568C184.286 80.2109 185.101 80.9603 185.862 81.8162C186.623 82.6722 187.17 83.5041 187.502 84.3119L184.322 86.033C183.975 85.2135 183.531 84.5067 182.992 83.9127C182.481 83.3145 181.932 82.7993 181.347 82.3668C180.525 81.759 179.842 81.4256 179.299 81.3664C178.756 81.3073 178.356 81.4517 178.099 81.7995C177.865 82.1158 177.824 82.4523 177.976 82.8091C178.144 83.1776 178.422 83.5788 178.81 84.0126C179.199 84.4464 179.633 84.9016 180.112 85.378C180.618 85.8504 181.096 86.3622 181.544 86.9136C181.992 87.465 182.339 88.0387 182.583 88.6348C182.854 89.2267 182.963 89.8572 182.908 90.5261C182.866 91.1793 182.576 91.8695 182.038 92.5969C181.454 93.3875 180.696 93.9158 179.766 94.1819C178.848 94.4321 177.809 94.398 176.651 94.0797C175.508 93.773 174.296 93.1463 173.016 92.1996Z" fill="white"/>
<path d="M157.902 81.6313C156.804 80.9026 155.963 80.0371 155.377 79.0347C154.808 78.0433 154.574 76.9557 154.676 75.7721C154.788 74.5721 155.295 73.2923 156.198 71.9326L161.157 64.4627L164.991 67.0076L160.406 73.9124C159.678 75.01 159.369 75.9731 159.479 76.8018C159.617 77.6251 160.112 78.3195 160.964 78.885C161.554 79.2765 162.159 79.5017 162.781 79.5605C163.414 79.6029 164.035 79.449 164.646 79.0988C165.267 78.7323 165.844 78.1476 166.376 77.3449L170.716 70.8087L174.549 73.3537L165.772 86.5735L162.136 84.1591L164.55 80.5224L164.512 82.0195C163.461 82.6432 162.343 82.9044 161.16 82.803C160.003 82.6962 158.917 82.3056 157.902 81.6313Z" fill="white"/>
<path d="M142.304 71.6474L150.455 58.0325L154.226 60.2899L151.923 64.1365L152.058 62.7048C153.039 61.9856 154.122 61.649 155.309 61.695C156.507 61.7242 157.746 62.1226 159.028 62.8902L156.847 66.5343C156.688 66.4164 156.541 66.3171 156.406 66.2363C156.282 66.1386 156.143 66.0443 155.991 65.9534C154.912 65.307 153.848 65.0939 152.799 65.3142C151.777 65.5276 150.878 66.2839 150.1 67.5829L146.252 74.0108L142.304 71.6474Z" fill="white"/>
<path d="M130.73 65.4814C129.569 64.8582 128.65 64.0748 127.974 63.1314C127.315 62.1973 126.981 61.1363 126.972 59.9484C126.972 58.7431 127.358 57.4216 128.13 55.9837L132.371 48.0841L136.425 50.2608L132.504 57.5627C131.881 58.7234 131.663 59.7112 131.851 60.526C132.065 61.3328 132.622 61.978 133.523 62.4617C134.146 62.7966 134.771 62.9644 135.395 62.965C136.029 62.9482 136.633 62.7371 137.208 62.3316C137.792 61.9087 138.312 61.2729 138.768 60.424L142.48 53.5119L146.533 55.6886L139.027 69.6688L135.181 67.6037L137.246 63.7579L137.348 65.252C136.359 65.9709 135.271 66.3351 134.083 66.3445C132.921 66.3458 131.804 66.0581 130.73 65.4814Z" fill="white"/>
<path d="M118.032 58.7774L119.345 55.9727L119.366 55.2332L121.717 50.2115C122.134 49.3211 122.183 48.4973 121.864 47.7402C121.564 46.9915 120.852 46.3545 119.73 45.8292C118.965 45.4706 118.15 45.2409 117.285 45.1401C116.446 45.0297 115.673 45.0584 114.965 45.2262L114.832 41.6142C115.874 41.4291 117.018 41.4436 118.264 41.6578C119.51 41.872 120.703 42.246 121.842 42.7796C124.033 43.8051 125.491 45.1178 126.219 46.7177C126.946 48.3175 126.797 50.2126 125.771 52.4029L121.932 60.6034L118.032 58.7774ZM113.551 56.94C112.429 56.4147 111.555 55.7774 110.929 55.0283C110.311 54.2613 109.943 53.4483 109.824 52.5893C109.705 51.7303 109.837 50.8912 110.221 50.0721C110.621 49.2173 111.176 48.5653 111.886 48.116C112.613 47.675 113.514 47.4891 114.589 47.5581C115.673 47.6094 116.944 47.9769 118.405 48.6606L122.224 50.4491L121.086 52.8798L117.721 51.304C116.741 50.8454 115.99 50.6888 115.465 50.8343C114.959 50.988 114.594 51.3053 114.368 51.7862C114.118 52.3204 114.123 52.8437 114.382 53.356C114.668 53.8588 115.176 54.2812 115.906 54.623C116.601 54.9482 117.299 55.0797 118.001 55.0177C118.712 54.9378 119.341 54.6357 119.891 54.1114L119.632 56.3348C118.895 57.119 118.014 57.5639 116.987 57.6695C115.961 57.7751 114.815 57.532 113.551 56.94Z" fill="white"/>
<path d="M97.8414 49.8998L104.169 34.3876L98.0511 31.8924L99.5215 28.2874L116.181 35.0825L114.71 38.6874L108.593 36.1922L102.266 51.7044L97.8414 49.8998Z" fill="white"/>
</svg>
