<svg width="229" height="221" viewBox="0 0 229 221" fill="none" xmlns="http://www.w3.org/2000/svg">
<path fill-rule="evenodd" clip-rule="evenodd" d="M194.369 94.548L221.931 122.025C188.569 159.648 128.249 196.514 70.4514 209.482L60.3438 172.402C84.5271 165.059 108.258 154.858 131.087 141.678C154.454 128.186 175.592 112.316 194.369 94.548ZM58.2385 164.679L32.1321 68.9054C62.4491 61.7942 90.8449 45.9772 118.583 18.9932L188.7 88.8961C170.41 106.178 149.83 121.618 127.087 134.75C104.868 147.578 81.7732 157.515 58.2385 164.679Z" fill="#ADCD3C"/>
<path d="M103.4 125.128L96.7513 128.967L70.3399 83.2214C67.0371 77.5006 57.9938 76.8191 57.9098 76.8136L58.3583 69.1427C58.894 69.1838 71.6055 70.0115 77.0092 79.3709L103.421 125.117L103.4 125.128Z" fill="white"/>
<path d="M119.508 115.829L112.859 119.668L86.4472 73.9219C84.2997 70.2023 80.6835 68.1394 78.227 67.105C76.6159 70.5687 74.9699 75.8854 76.989 79.3826L103.4 125.128L96.7513 128.967L70.3399 83.2214C64.8079 73.6396 72.8146 60.9041 73.1595 60.3815L74.5938 58.1519L77.1987 58.6964C77.6333 58.7958 87.8793 61.047 93.1079 70.1032L119.519 115.849L119.508 115.829Z" fill="white"/>
<path d="M128.295 121.294L123.601 115.218C123.731 115.116 137.901 103.862 133.034 90.9044C130.819 85.0139 127.71 81.8225 125.363 80.1854C124.687 83.0284 124.352 87.0222 126.243 90.297L119.594 94.1358C114.214 84.8168 119.428 73.6395 119.64 73.1666L120.988 70.367L124.022 71.095C124.457 71.1944 134.82 73.836 140.224 88.2357C147.084 106.511 129.077 120.735 128.286 121.326L128.295 121.294Z" fill="white"/>
<path d="M146.72 116.99C136.755 115.925 129.5 111.246 124.563 102.695L102.575 64.6107C100.427 60.8912 96.8312 58.8165 94.3545 57.7938C92.7434 61.2575 91.0974 66.5742 93.1165 70.0714L119.528 115.817L112.879 119.656L86.4674 73.9102C80.9354 64.3284 88.942 51.5929 89.287 51.0703L90.7213 48.8407L93.3261 49.3852C93.7608 49.4846 104.007 51.7358 109.235 60.792L131.224 98.8766C134.947 105.325 139.992 108.557 147.548 109.37L146.732 117.01L146.72 116.99Z" fill="white"/>
<path d="M174.324 149.33C172.968 150.295 171.559 150.87 170.099 151.054C168.654 151.227 167.276 151.043 165.965 150.503C164.659 149.936 163.557 149.021 162.659 147.759C161.75 146.482 161.247 145.141 161.151 143.737C161.059 142.305 161.337 140.943 161.986 139.651C162.638 138.331 163.643 137.189 164.999 136.224C166.34 135.27 167.741 134.701 169.201 134.517C170.651 134.317 172.023 134.493 173.318 135.044C174.613 135.596 175.721 136.518 176.641 137.811C177.539 139.073 178.041 140.414 178.149 141.834C178.245 143.239 177.967 144.6 177.314 145.92C176.662 147.24 175.665 148.376 174.324 149.33ZM172.17 146.302C172.785 145.864 173.236 145.33 173.523 144.698C173.81 144.066 173.91 143.389 173.824 142.667C173.726 141.928 173.419 141.196 172.903 140.471C172.376 139.73 171.785 139.2 171.131 138.881C170.476 138.563 169.804 138.436 169.113 138.5C168.422 138.563 167.769 138.814 167.154 139.252C166.539 139.69 166.088 140.224 165.801 140.856C165.514 141.488 165.406 142.171 165.476 142.904C165.563 143.627 165.87 144.359 166.397 145.1C166.913 145.825 167.504 146.355 168.169 146.689C168.839 146.997 169.52 147.118 170.211 147.054C170.902 146.99 171.555 146.74 172.17 146.302Z" fill="white"/>
<path d="M159.456 166.058C158.21 166.841 156.908 167.443 155.549 167.863C154.216 168.289 152.974 168.441 151.823 168.319L151.616 164.608C152.462 164.717 153.393 164.634 154.41 164.361C155.453 164.093 156.393 163.697 157.229 163.171C158.589 162.316 159.381 161.394 159.606 160.407C159.848 159.409 159.593 158.312 158.84 157.116L157.588 155.125L155.748 151.652L153.597 148.34L151.804 145.489L155.441 143.202L162.366 154.213C163.911 156.671 164.411 158.884 163.864 160.851C163.318 162.818 161.848 164.554 159.456 166.058ZM155.342 160.825C154.113 161.598 152.834 162.036 151.505 162.14C150.181 162.218 148.918 161.972 147.714 161.403C146.516 160.807 145.515 159.87 144.712 158.592C143.898 157.297 143.487 155.989 143.479 154.668C143.477 153.32 143.803 152.075 144.457 150.932C145.127 149.779 146.076 148.816 147.305 148.044C148.419 147.343 149.547 146.954 150.687 146.877C151.817 146.784 152.919 147.063 153.992 147.714C155.054 148.35 156.049 149.405 156.977 150.879C157.894 152.338 158.413 153.692 158.536 154.941C158.648 156.174 158.422 157.287 157.859 158.282C157.295 159.277 156.456 160.124 155.342 160.825ZM154.126 157.2C154.797 156.777 155.313 156.27 155.673 155.678C156.022 155.07 156.189 154.427 156.175 153.75C156.161 153.073 155.953 152.415 155.551 151.776C155.139 151.12 154.636 150.648 154.042 150.358C153.438 150.052 152.791 149.933 152.102 150C151.403 150.051 150.717 150.288 150.045 150.711C149.373 151.133 148.863 151.648 148.514 152.257C148.154 152.849 147.973 153.488 147.971 154.176C147.975 154.836 148.183 155.494 148.595 156.15C148.997 156.789 149.5 157.261 150.104 157.568C150.724 157.863 151.384 157.986 152.084 157.935C152.773 157.867 153.454 157.622 154.126 157.2Z" fill="white"/>
<path d="M138.882 171.385L131.201 157.784L134.968 155.656L137.138 159.499L135.979 158.687C135.841 157.497 136.08 156.406 136.697 155.413C137.305 154.403 138.249 153.536 139.53 152.813L141.586 156.453C141.408 156.531 141.252 156.609 141.117 156.685C140.973 156.744 140.825 156.817 140.673 156.902C139.594 157.511 138.894 158.318 138.572 159.323C138.257 160.301 138.467 161.439 139.2 162.736L142.826 169.158L138.882 171.385Z" fill="white"/>
<path d="M131.301 175.431L124.019 161.611L128.026 159.5L135.309 173.319L131.301 175.431ZM125.008 158.629C124.271 159.017 123.559 159.119 122.871 158.934C122.183 158.75 121.672 158.341 121.338 157.707C121.004 157.074 120.956 156.421 121.193 155.749C121.429 155.078 121.916 154.548 122.652 154.16C123.389 153.772 124.096 153.661 124.775 153.829C125.445 153.979 125.947 154.371 126.281 155.004C126.633 155.672 126.695 156.351 126.467 157.039C126.248 157.702 125.761 158.232 125.008 158.629Z" fill="white"/>
<path d="M117.909 182.053L101.276 167.448L105.867 165.27L120.507 178.249L117.805 179.531L117.12 159.932L121.344 157.928L122.106 180.062L117.909 182.053Z" fill="white"/>
</svg>
